<svg width="15" height="18" viewBox="0 0 15 18" fill="none" xmlns="http://www.w3.org/2000/svg">
<path d="M12.5284 9.57419C12.5375 8.88426 12.7252 8.20779 13.074 7.60772C13.4229 7.00765 13.9215 6.50347 14.5236 6.14211C14.1411 5.60882 13.6366 5.16995 13.05 4.86034C12.4634 4.55074 11.8109 4.37893 11.1444 4.35857C9.72266 4.21287 8.34434 5.18917 7.61982 5.18917C6.8813 5.18917 5.76582 4.37304 4.56462 4.39717C3.78766 4.42167 3.03044 4.64225 2.36676 5.03742C1.70308 5.43258 1.15556 5.98885 0.777551 6.65202C-0.859861 9.41981 0.361504 13.4875 1.93004 15.7248C2.71481 16.8204 3.63198 18.0441 4.8321 18.0007C6.00647 17.9532 6.44508 17.2696 7.86265 17.2696C9.26707 17.2696 9.67856 18.0007 10.903 17.9731C12.1632 17.9532 12.9571 16.8727 13.7144 15.7668C14.2783 14.9862 14.7122 14.1235 15 13.2106C14.2679 12.9082 13.6431 12.4022 13.2036 11.7556C12.7641 11.1089 12.5292 10.3503 12.5284 9.57419Z" fill="white"/>
<path d="M10.2175 2.88535C10.9046 2.08007 11.2431 1.04502 11.1611 0C10.1114 0.107639 9.14175 0.597447 8.44538 1.37183C8.1049 1.75013 7.84413 2.19025 7.67797 2.667C7.51182 3.14376 7.44354 3.64782 7.47704 4.15035C8.00209 4.15563 8.52152 4.04452 8.99621 3.8254C9.4709 3.60628 9.88848 3.28486 10.2175 2.88535Z" fill="white"/>
</svg>
