<svg width="622" height="161" viewBox="0 0 622 161" fill="none" xmlns="http://www.w3.org/2000/svg">
<g opacity="0.2">
<path d="M17.4932 7.63915C17.5596 7.63915 17.6621 7.61029 17.7198 7.57421C17.7761 7.53957 17.7674 7.50781 17.701 7.50781C17.6346 7.50781 17.5322 7.53813 17.4759 7.57421C17.4182 7.61029 17.4268 7.63915 17.4932 7.63915Z" fill="#26A16E"/>
<path d="M39.4014 7.73632C39.5689 7.73632 39.8128 7.66273 39.9455 7.57325C40.0769 7.48233 40.0437 7.41016 39.8763 7.41016C39.706 7.41016 39.4649 7.48233 39.3322 7.57325C39.1994 7.66418 39.2311 7.73632 39.4014 7.73632Z" fill="#26A16E"/>
<path d="M61.2878 7.87007C61.5909 7.87007 62.0138 7.7373 62.2317 7.57566C62.4453 7.41258 62.3731 7.28125 62.0715 7.28125C61.7684 7.28125 61.347 7.41258 61.132 7.57566C60.9126 7.7373 60.9819 7.87007 61.2878 7.87007Z" fill="#26A16E"/>
<path d="M83.1694 8.02975C83.6428 8.02975 84.2749 7.82481 84.5809 7.57224C84.8825 7.31679 84.7469 7.11328 84.2764 7.11328C83.8044 7.11328 83.1737 7.31823 82.8678 7.57224C82.5604 7.82625 82.696 8.02975 83.1694 8.02975Z" fill="#26A16E"/>
<path d="M105.092 8.20008C105.735 8.20008 106.559 7.91865 106.928 7.57516C107.296 7.23167 107.078 6.95312 106.439 6.95312C105.801 6.95312 104.977 7.23023 104.606 7.57516C104.231 7.91721 104.447 8.20008 105.092 8.20008Z" fill="#26A16E"/>
<path d="M127.02 8.39731C127.869 8.39731 128.906 8.02641 129.336 7.57468C129.764 7.12294 129.43 6.75781 128.589 6.75781C127.747 6.75781 126.715 7.12294 126.28 7.57468C125.841 8.02641 126.173 8.39731 127.02 8.39731Z" fill="#26A16E"/>
<path d="M149.025 8.56234C150.045 8.56234 151.236 8.11638 151.686 7.57228C152.131 7.03106 151.675 6.59375 150.666 6.59375C149.66 6.59375 148.472 7.03106 148.018 7.57228C147.554 8.11638 148.008 8.56234 149.025 8.56234Z" fill="#26A16E"/>
<path d="M171.053 8.75957C172.277 8.75957 173.639 8.22558 174.098 7.57179C174.55 6.92234 173.937 6.39844 172.729 6.39844C171.522 6.39844 170.166 6.92089 169.697 7.57179C169.222 8.22558 169.831 8.75957 171.053 8.75957Z" fill="#26A16E"/>
<path d="M193.143 8.92704C194.539 8.92704 196.018 8.31799 196.447 7.57328C196.868 6.8329 196.094 6.23828 194.723 6.23828C193.349 6.23828 191.876 6.8329 191.434 7.57328C190.983 8.31943 191.75 8.92704 193.143 8.92704Z" fill="#26A16E"/>
<path d="M215.293 9.05936C216.825 9.05936 218.366 8.3897 218.733 7.57283C219.095 6.76029 218.164 6.10938 216.659 6.10938C215.152 6.10938 213.619 6.76029 213.231 7.57283C212.838 8.3897 213.762 9.05936 215.293 9.05936Z" fill="#26A16E"/>
<path d="M237.475 9.19556C239.145 9.19556 240.732 8.46674 241.021 7.57626C241.305 6.69444 240.205 5.98438 238.567 5.98438C236.926 5.98438 235.346 6.693 235.031 7.57626C234.714 8.46674 235.806 9.19556 237.475 9.19556Z" fill="#26A16E"/>
<path d="M259.7 9.29028C261.472 9.29028 263.061 8.51672 263.25 7.5714C263.436 6.63474 262.175 5.88281 260.436 5.88281C258.697 5.88281 257.112 6.63474 256.893 7.5714C256.67 8.51672 257.927 9.29028 259.7 9.29028Z" fill="#26A16E"/>
<path d="M281.949 9.35912C283.79 9.35912 285.341 8.55524 285.416 7.57384C285.487 6.6011 284.084 5.82031 282.279 5.82031C280.473 5.82031 278.922 6.6011 278.815 7.57384C278.704 8.55668 280.108 9.35912 281.949 9.35912Z" fill="#26A16E"/>
<path d="M304.214 9.35912C306.054 9.35912 307.506 8.55524 307.459 7.57384C307.41 6.6011 305.911 5.82031 304.107 5.82031C302.301 5.82031 300.845 6.6011 300.859 7.57384C300.868 8.55668 302.373 9.35912 304.214 9.35912Z" fill="#26A16E"/>
<path d="M326.476 9.35912C328.316 9.35912 329.669 8.55524 329.501 7.57384C329.331 6.6011 327.736 5.82031 325.931 5.82031C324.126 5.82031 322.766 6.6011 322.9 7.57384C323.031 8.55668 324.635 9.35912 326.476 9.35912Z" fill="#26A16E"/>
<path d="M348.722 9.29028C350.494 9.29028 351.701 8.51672 351.424 7.5714C351.148 6.63474 349.514 5.88281 347.775 5.88281C346.036 5.88281 344.822 6.63474 345.066 7.5714C345.312 8.51672 346.95 9.29028 348.722 9.29028Z" fill="#26A16E"/>
<path d="M370.935 9.19556C372.604 9.19556 373.654 8.46674 373.28 7.57626C372.91 6.69444 371.285 5.98438 369.647 5.98438C368.006 5.98438 366.95 6.693 367.29 7.57626C367.634 8.46674 369.266 9.19556 370.935 9.19556Z" fill="#26A16E"/>
<path d="M393.095 9.02421C394.593 9.02421 395.453 8.37042 395.023 7.57087C394.594 6.77709 393.056 6.14062 391.582 6.14062C390.109 6.14062 389.237 6.77709 389.642 7.57087C390.049 8.37042 391.597 9.02421 393.095 9.02421Z" fill="#26A16E"/>
<path d="M415.231 8.89046C416.59 8.89046 417.299 8.29729 416.82 7.57134C416.344 6.85117 414.873 6.26953 413.532 6.26953C412.191 6.26953 411.473 6.85117 411.932 7.57134C412.392 8.29729 413.871 8.89046 415.231 8.89046Z" fill="#26A16E"/>
<path d="M437.282 8.69321C438.437 8.69321 438.979 8.18952 438.496 7.57326C438.014 6.95988 436.703 6.46484 435.562 6.46484C434.422 6.46484 433.872 6.95988 434.338 7.57326C434.808 8.19096 436.126 8.69321 437.282 8.69321Z" fill="#26A16E"/>
<path d="M459.317 8.5282C460.302 8.5282 460.71 8.09956 460.235 7.57422C459.762 7.05033 458.589 6.62891 457.616 6.62891C456.643 6.62891 456.226 7.05033 456.689 7.57422C457.155 8.09956 458.335 8.5282 459.317 8.5282Z" fill="#26A16E"/>
<path d="M481.277 8.33094C482.056 8.33094 482.342 7.99178 481.912 7.57469C481.486 7.15903 480.513 6.82422 479.741 6.82422C478.967 6.82422 478.679 7.15903 479.1 7.57469C479.523 7.99034 480.497 8.33094 481.277 8.33094Z" fill="#26A16E"/>
<path d="M503.221 8.16493C503.83 8.16493 504.021 7.89938 503.646 7.57465C503.272 7.24848 502.479 6.98438 501.875 6.98438C501.27 6.98438 501.075 7.24993 501.446 7.57465C501.816 7.90082 502.611 8.16493 503.221 8.16493Z" fill="#26A16E"/>
<path d="M525.133 8.00139C525.573 8.00139 525.686 7.80944 525.387 7.57419C525.088 7.33894 524.492 7.14844 524.053 7.14844C523.616 7.14844 523.501 7.33894 523.798 7.57419C524.095 7.80944 524.693 8.00139 525.133 8.00139Z" fill="#26A16E"/>
<path d="M546.996 7.83784C547.267 7.83784 547.324 7.72095 547.122 7.57518C546.92 7.42941 546.54 7.3125 546.27 7.3125C546 7.3125 545.943 7.42941 546.143 7.57518C546.344 7.72095 546.725 7.83784 546.996 7.83784Z" fill="#26A16E"/>
<path d="M568.879 7.70408C569.015 7.70408 569.034 7.64491 568.926 7.57275C568.816 7.50058 568.62 7.44141 568.484 7.44141C568.348 7.44141 568.328 7.50058 568.438 7.57275C568.546 7.64491 568.744 7.70408 568.879 7.70408Z" fill="#26A16E"/>
<path d="M590.775 7.60585C590.808 7.60585 590.809 7.5887 590.781 7.57441C590.752 7.55583 590.698 7.54297 590.667 7.54297C590.634 7.54297 590.632 7.55726 590.661 7.57441C590.689 7.59012 590.742 7.60585 590.775 7.60585Z" fill="#26A16E"/>
<path d="M9.40318 20.2671C9.4389 20.2671 9.49462 20.2486 9.52606 20.2314C9.55749 20.2086 9.55464 20.1914 9.51892 20.1914C9.4832 20.1914 9.4289 20.21 9.39746 20.2314C9.3646 20.2486 9.36889 20.2671 9.40318 20.2671Z" fill="#26A16E"/>
<path d="M32.9127 20.3452C33.0238 20.3452 33.1826 20.2933 33.2663 20.2326C33.3543 20.1691 33.3385 20.1172 33.2273 20.1172C33.1205 20.1172 32.9618 20.1691 32.8737 20.2326C32.79 20.2933 32.8059 20.3452 32.9127 20.3452Z" fill="#26A16E"/>
<path d="M56.3909 20.4566C56.6059 20.4566 56.909 20.3571 57.0663 20.2329C57.2236 20.1074 57.176 20.0078 56.9581 20.0078C56.743 20.0078 56.4385 20.1074 56.2798 20.2329C56.121 20.3556 56.173 20.4566 56.3909 20.4566Z" fill="#26A16E"/>
<path d="M79.8515 20.6049C80.2138 20.6049 80.7016 20.4375 80.9383 20.2297C81.1749 20.0204 81.0739 19.8516 80.7131 19.8516C80.3523 19.8516 79.8674 20.0204 79.6292 20.2297C79.3926 20.4375 79.4892 20.6049 79.8515 20.6049Z" fill="#26A16E"/>
<path d="M103.355 20.7592C103.861 20.7592 104.514 20.5225 104.811 20.2324C105.104 19.9408 104.932 19.707 104.429 19.707C103.923 19.707 103.273 19.9408 102.977 20.2324C102.677 20.5225 102.845 20.7592 103.355 20.7592Z" fill="#26A16E"/>
<path d="M126.853 20.9498C127.543 20.9498 128.387 20.6251 128.739 20.2325C129.089 19.8385 128.819 19.5195 128.135 19.5195C127.451 19.5195 126.606 19.8385 126.251 20.2325C125.895 20.6251 126.163 20.9498 126.853 20.9498Z" fill="#26A16E"/>
<path d="M150.431 21.0962C151.267 21.0962 152.244 20.7065 152.61 20.2288C152.974 19.7511 152.596 19.3672 151.768 19.3672C150.942 19.3672 149.969 19.7511 149.598 20.2288C149.225 20.708 149.597 21.0962 150.431 21.0962Z" fill="#26A16E"/>
<path d="M174.023 21.2868C175.04 21.2868 176.17 20.8106 176.543 20.2289C176.914 19.6487 176.394 19.1797 175.39 19.1797C174.382 19.1797 173.259 19.6473 172.877 20.2289C172.494 20.8106 173.005 21.2868 174.023 21.2868Z" fill="#26A16E"/>
<path d="M197.684 21.441C198.847 21.441 200.071 20.8984 200.414 20.2316C200.756 19.5677 200.094 19.0352 198.946 19.0352C197.796 19.0352 196.58 19.5677 196.223 20.2316C195.865 20.8998 196.517 21.441 197.684 21.441Z" fill="#26A16E"/>
<path d="M221.376 21.5928C222.686 21.5928 223.986 20.9808 224.281 20.2318C224.57 19.4856 223.754 18.8867 222.461 18.8867C221.169 18.8867 219.875 19.4856 219.567 20.2318C219.254 20.9808 220.064 21.5928 221.376 21.5928Z" fill="#26A16E"/>
<path d="M245.116 21.7075C246.535 21.7075 247.866 21.0408 248.081 20.2311C248.294 19.4229 247.33 18.7734 245.932 18.7734C244.53 18.7734 243.207 19.4229 242.973 20.2311C242.738 21.0408 243.695 21.7075 245.116 21.7075Z" fill="#26A16E"/>
<path d="M268.886 21.8204C270.418 21.8204 271.758 21.1075 271.88 20.23C272.004 19.3597 270.88 18.6641 269.373 18.6641C267.867 18.6641 266.529 19.3597 266.38 20.23C266.233 21.1075 267.354 21.8204 268.886 21.8204Z" fill="#26A16E"/>
<path d="M292.689 21.8593C294.258 21.8593 295.542 21.1261 295.557 20.2299C295.571 19.3394 294.332 18.625 292.79 18.625C291.249 18.625 289.967 19.3394 289.927 20.2299C289.885 21.1261 291.12 21.8593 292.689 21.8593Z" fill="#26A16E"/>
<path d="M316.501 21.8963C318.106 21.8963 319.327 21.1472 319.228 20.2308C319.13 19.3216 317.773 18.5898 316.197 18.5898C314.621 18.5898 313.397 19.3216 313.468 20.2308C313.537 21.1472 314.898 21.8963 316.501 21.8963Z" fill="#26A16E"/>
<path d="M340.305 21.8593C341.874 21.8593 342.976 21.1261 342.77 20.2299C342.565 19.3394 341.151 18.625 339.608 18.625C338.066 18.625 336.962 19.3394 337.14 20.2299C337.32 21.1261 338.736 21.8593 340.305 21.8593Z" fill="#26A16E"/>
<path d="M364.088 21.782C365.583 21.782 366.545 21.0849 366.245 20.2305C365.945 19.3804 364.51 18.6992 363.041 18.6992C361.569 18.6992 360.599 19.3804 360.875 20.2305C361.152 21.0835 362.595 21.782 364.088 21.782Z" fill="#26A16E"/>
<path d="M387.853 21.7075C389.273 21.7075 390.11 21.0408 389.723 20.2311C389.339 19.4229 387.894 18.7734 386.496 18.7734C385.095 18.7734 384.253 19.4229 384.615 20.2311C384.98 21.0408 386.429 21.7075 387.853 21.7075Z" fill="#26A16E"/>
<path d="M411.57 21.5928C412.88 21.5928 413.576 20.9808 413.127 20.2318C412.682 19.4856 411.275 18.8867 409.982 18.8867C408.691 18.8867 407.988 19.4856 408.413 20.2318C408.843 20.9808 410.259 21.5928 411.57 21.5928Z" fill="#26A16E"/>
<path d="M435.213 21.4021C436.341 21.4021 436.875 20.8783 436.411 20.2331C435.948 19.5894 434.674 19.0742 433.56 19.0742C432.447 19.0742 431.904 19.588 432.353 20.2331C432.805 20.8783 434.086 21.4021 435.213 21.4021Z" fill="#26A16E"/>
<path d="M458.838 21.2504C459.819 21.2504 460.226 20.7929 459.754 20.2329C459.284 19.6715 458.116 19.2227 457.145 19.2227C456.174 19.2227 455.759 19.6715 456.218 20.2329C456.683 20.7929 457.856 21.2504 458.838 21.2504Z" fill="#26A16E"/>
<path d="M482.385 21.0588C483.183 21.0588 483.474 20.685 483.032 20.2303C482.593 19.7743 481.597 19.4062 480.805 19.4062C480.013 19.4062 479.721 19.7757 480.153 20.2303C480.587 20.685 481.587 21.0588 482.385 21.0588Z" fill="#26A16E"/>
<path d="M505.929 20.9099C506.583 20.9099 506.781 20.6054 506.375 20.2316C505.97 19.8578 505.117 19.5547 504.469 19.5547C503.821 19.5547 503.617 19.8578 504.018 20.2316C504.42 20.6054 505.275 20.9099 505.929 20.9099Z" fill="#26A16E"/>
<path d="M529.396 20.7217C529.868 20.7217 529.985 20.5038 529.658 20.2339C529.33 19.9626 528.689 19.7461 528.22 19.7461C527.751 19.7461 527.631 19.9626 527.957 20.2339C528.282 20.5023 528.926 20.7217 529.396 20.7217Z" fill="#26A16E"/>
<path d="M552.862 20.5714C553.188 20.5714 553.249 20.4184 553.002 20.2337C552.754 20.0446 552.288 19.8945 551.963 19.8945C551.638 19.8945 551.576 20.0446 551.823 20.2337C552.07 20.4184 552.534 20.5714 552.862 20.5714Z" fill="#26A16E"/>
<path d="M576.286 20.4157C576.466 20.4157 576.494 20.3306 576.341 20.2281C576.189 20.1228 575.919 20.0391 575.739 20.0391C575.559 20.0391 575.534 20.1228 575.684 20.2281C575.837 20.3321 576.106 20.4157 576.286 20.4157Z" fill="#26A16E"/>
<path d="M599.743 20.3039C599.814 20.3039 599.819 20.2693 599.755 20.2288C599.691 20.187 599.577 20.1523 599.506 20.1523C599.436 20.1523 599.43 20.1856 599.493 20.2288C599.558 20.2693 599.671 20.3039 599.743 20.3039Z" fill="#26A16E"/>
<path d="M0.0312486 34.8606C0.0683978 34.8606 0.128407 34.8392 0.162698 34.8163C0.19699 34.7934 0.19413 34.7734 0.156981 34.7734C0.118403 34.7734 0.0583954 34.7934 0.022675 34.8163C-0.0101878 34.8406 -0.00732941 34.8606 0.0312486 34.8606Z" fill="#26A16E"/>
<path d="M25.3286 34.9516C25.4469 34.9516 25.6216 34.891 25.7139 34.8188C25.8092 34.7481 25.7962 34.6875 25.6779 34.6875C25.5624 34.6875 25.3892 34.7481 25.2925 34.8188C25.1987 34.891 25.2117 34.9516 25.3286 34.9516Z" fill="#26A16E"/>
<path d="M50.5952 35.0771C50.8305 35.0771 51.1581 34.9602 51.3327 34.8159C51.5059 34.6701 51.4554 34.5547 51.2245 34.5547C50.9892 34.5547 50.6602 34.6701 50.4855 34.8159C50.3123 34.9602 50.3643 35.0771 50.5952 35.0771Z" fill="#26A16E"/>
<path d="M75.8425 35.2545C76.2322 35.2545 76.7633 35.0568 77.0202 34.8172C77.2814 34.5776 77.1746 34.3828 76.7864 34.3828C76.3981 34.3828 75.8728 34.5776 75.6116 34.8172C75.3532 35.0568 75.4543 35.2545 75.8425 35.2545Z" fill="#26A16E"/>
<path d="M101.188 35.3869C101.694 35.3869 102.345 35.1328 102.646 34.8182C102.941 34.5065 102.774 34.2539 102.27 34.2539C101.764 34.2539 101.113 34.5065 100.814 34.8182C100.512 35.1328 100.68 35.3869 101.188 35.3869Z" fill="#26A16E"/>
<path d="M126.512 35.5613C127.176 35.5613 127.989 35.2308 128.328 34.8195C128.669 34.4111 128.405 34.082 127.745 34.082C127.085 34.082 126.277 34.4096 125.932 34.8195C125.59 35.2294 125.849 35.5613 126.512 35.5613Z" fill="#26A16E"/>
<path d="M151.888 35.7387C152.71 35.7387 153.667 35.326 154.022 34.8194C154.377 34.3157 154.002 33.9102 153.187 33.9102C152.374 33.9102 151.423 34.3157 151.061 34.8194C150.699 35.326 151.069 35.7387 151.888 35.7387Z" fill="#26A16E"/>
<path d="M177.306 35.9122C178.284 35.9122 179.36 35.4215 179.71 34.8168C180.058 34.2179 179.552 33.7344 178.583 33.7344C177.616 33.7344 176.544 34.2179 176.187 34.8168C175.827 35.4215 176.327 35.9122 177.306 35.9122Z" fill="#26A16E"/>
<path d="M202.79 36.0445C203.886 36.0445 205.027 35.4932 205.332 34.8178C205.638 34.1467 205.003 33.6055 203.92 33.6055C202.839 33.6055 201.705 34.1467 201.387 34.8178C201.07 35.4932 201.695 36.0445 202.79 36.0445Z" fill="#26A16E"/>
<path d="M228.304 36.1754C229.519 36.1754 230.704 35.5663 230.951 34.8173C231.196 34.074 230.421 33.4766 229.222 33.4766C228.025 33.4766 226.843 34.074 226.582 34.8173C226.321 35.5663 227.092 36.1754 228.304 36.1754Z" fill="#26A16E"/>
<path d="M253.872 36.2219C255.125 36.2219 256.271 35.5912 256.431 34.8176C256.588 34.0513 255.709 33.4336 254.476 33.4336C253.239 33.4336 252.097 34.0513 251.921 34.8176C251.745 35.5912 252.618 36.2219 253.872 36.2219Z" fill="#26A16E"/>
<path d="M279.442 36.3092C280.776 36.3092 281.909 35.638 281.976 34.8183C282.041 34.0043 281.033 33.3477 279.718 33.3477C278.403 33.3477 277.269 34.0029 277.185 34.8183C277.098 35.638 278.11 36.3092 279.442 36.3092Z" fill="#26A16E"/>
<path d="M305.036 36.3092C306.368 36.3092 307.42 35.638 307.386 34.8183C307.349 34.0043 306.26 33.3477 304.945 33.3477C303.632 33.3477 302.577 34.0029 302.594 34.8183C302.608 35.638 303.702 36.3092 305.036 36.3092Z" fill="#26A16E"/>
<path d="M330.62 36.2627C331.914 36.2627 332.856 35.6147 332.722 34.8166C332.592 34.0257 331.453 33.3906 330.177 33.3906C328.901 33.3906 327.959 34.0257 328.072 34.8166C328.187 35.6147 329.327 36.2627 330.62 36.2627Z" fill="#26A16E"/>
<path d="M356.194 36.2219C357.447 36.2219 358.283 35.5912 358.061 34.8176C357.84 34.0513 356.655 33.4336 355.421 33.4336C354.183 33.4336 353.345 34.0513 353.55 34.8176C353.755 35.5912 354.94 36.2219 356.194 36.2219Z" fill="#26A16E"/>
<path d="M381.741 36.1357C382.917 36.1357 383.626 35.5439 383.33 34.8209C383.034 34.1022 381.856 33.5234 380.693 33.5234C379.536 33.5234 378.82 34.1022 379.1 34.8209C379.381 35.5439 380.568 36.1357 381.741 36.1357Z" fill="#26A16E"/>
<path d="M407.241 35.9995C408.298 35.9995 408.871 35.4684 408.523 34.8175C408.18 34.1723 407.052 33.6484 406.009 33.6484C404.965 33.6484 404.387 34.1709 404.719 34.8175C405.053 35.4684 406.185 35.9995 407.241 35.9995Z" fill="#26A16E"/>
<path d="M432.711 35.8711C433.651 35.8711 434.102 35.4006 433.721 34.8204C433.343 34.2445 432.287 33.7812 431.357 33.7812C430.426 33.7812 429.97 34.2431 430.338 34.8204C430.709 35.3991 431.772 35.8711 432.711 35.8711Z" fill="#26A16E"/>
<path d="M458.111 35.6912C458.892 35.6912 459.22 35.2972 458.844 34.8166C458.472 34.336 457.543 33.9492 456.768 33.9492C455.994 33.9492 455.662 34.336 456.027 34.8166C456.397 35.2972 457.331 35.6912 458.111 35.6912Z" fill="#26A16E"/>
<path d="M483.474 35.5177C484.099 35.5177 484.323 35.2045 483.977 34.8192C483.63 34.4353 482.848 34.125 482.228 34.125C481.607 34.125 481.38 34.4367 481.721 34.8192C482.063 35.206 482.85 35.5177 483.474 35.5177Z" fill="#26A16E"/>
<path d="M508.831 35.3869C509.34 35.3869 509.49 35.1328 509.168 34.8182C508.846 34.5065 508.182 34.2539 507.678 34.2539C507.175 34.2539 507.019 34.5065 507.338 34.8182C507.657 35.1328 508.323 35.3869 508.831 35.3869Z" fill="#26A16E"/>
<path d="M534.108 35.2148C534.459 35.2148 534.541 35.0387 534.293 34.8208C534.046 34.6058 533.562 34.4297 533.212 34.4297C532.862 34.4297 532.777 34.6058 533.024 34.8208C533.271 35.0373 533.757 35.2148 534.108 35.2148Z" fill="#26A16E"/>
<path d="M559.346 35.036C559.541 35.036 559.575 34.9393 559.422 34.818C559.269 34.6968 558.988 34.6016 558.793 34.6016C558.6 34.6016 558.563 34.6968 558.715 34.818C558.869 34.9393 559.152 35.036 559.346 35.036Z" fill="#26A16E"/>
<path d="M584.655 34.9516C584.772 34.9516 584.784 34.891 584.684 34.8188C584.585 34.7481 584.409 34.6875 584.292 34.6875C584.175 34.6875 584.163 34.7481 584.263 34.8188C584.364 34.891 584.538 34.9516 584.655 34.9516Z" fill="#26A16E"/>
<path d="M609.951 34.8606C609.988 34.8606 609.988 34.8392 609.954 34.8163C609.918 34.792 609.856 34.7734 609.818 34.7734C609.78 34.7734 609.78 34.7934 609.816 34.8163C609.85 34.8406 609.913 34.8606 609.951 34.8606Z" fill="#26A16E"/>
<path d="M16.6188 51.8695C16.6603 51.8695 16.7246 51.8467 16.7603 51.8195C16.796 51.791 16.7903 51.7695 16.7488 51.7695C16.7074 51.7695 16.646 51.7924 16.6103 51.8195C16.5745 51.8481 16.5788 51.8695 16.6188 51.8695Z" fill="#26A16E"/>
<path d="M44.0167 51.9725C44.1452 51.9725 44.327 51.9046 44.4208 51.8209C44.5161 51.7358 44.4973 51.668 44.3689 51.668C44.2433 51.668 44.06 51.7372 43.9648 51.8209C43.8709 51.9046 43.8912 51.9725 44.0167 51.9725Z" fill="#26A16E"/>
<path d="M71.3872 52.1236C71.6412 52.1236 71.9832 51.988 72.1579 51.8177C72.331 51.6474 72.2618 51.5117 72.0121 51.5117C71.7595 51.5117 71.416 51.6474 71.2428 51.8177C71.0668 51.9894 71.1346 52.1236 71.3872 52.1236Z" fill="#26A16E"/>
<path d="M98.8431 52.2256C99.1809 52.2256 99.6182 52.0423 99.8173 51.8186C100.019 51.5935 99.9097 51.4102 99.572 51.4102C99.2357 51.4102 98.7984 51.5935 98.5963 51.8186C98.3957 52.0438 98.5054 52.2256 98.8431 52.2256Z" fill="#26A16E"/>
<path d="M126.241 52.4352C126.747 52.4352 127.369 52.1567 127.629 51.819C127.886 51.4827 127.69 51.207 127.188 51.207C126.681 51.207 126.059 51.4813 125.801 51.819C125.538 52.1567 125.731 52.4352 126.241 52.4352Z" fill="#26A16E"/>
<path d="M153.721 52.5831C154.355 52.5831 155.091 52.2396 155.362 51.8167C155.636 51.3938 155.343 51.0547 154.714 51.0547C154.082 51.0547 153.35 51.3938 153.073 51.8167C152.797 52.2381 153.087 52.5831 153.721 52.5831Z" fill="#26A16E"/>
<path d="M181.24 52.7435C182.001 52.7435 182.837 52.3293 183.101 51.8213C183.362 51.3147 182.962 50.9062 182.207 50.9062C181.451 50.9062 180.621 51.3147 180.354 51.8213C180.084 52.3293 180.48 52.7435 181.24 52.7435Z" fill="#26A16E"/>
<path d="M208.825 52.844C209.671 52.844 210.54 52.385 210.762 51.8207C210.983 51.2579 210.482 50.8047 209.645 50.8047C208.808 50.8047 207.941 51.2579 207.713 51.8207C207.482 52.385 207.98 52.844 208.825 52.844Z" fill="#26A16E"/>
<path d="M236.426 52.9459C237.357 52.9459 238.249 52.4393 238.418 51.8202C238.581 51.2025 237.972 50.7031 237.051 50.7031C236.127 50.7031 235.237 51.2039 235.062 51.8202C234.884 52.4393 235.494 52.9459 236.426 52.9459Z" fill="#26A16E"/>
<path d="M264.058 53.0493C265.076 53.0493 265.98 52.498 266.08 51.8197C266.178 51.1428 265.442 50.6016 264.436 50.6016C263.43 50.6016 262.527 51.1428 262.417 51.8197C262.307 52.498 263.041 53.0493 264.058 53.0493Z" fill="#26A16E"/>
<path d="M291.718 53.0999C292.778 53.0999 293.648 52.5241 293.665 51.8169C293.68 51.1155 292.846 50.5469 291.798 50.5469C290.75 50.5469 289.878 51.1155 289.852 51.8169C289.822 52.5241 290.659 53.0999 291.718 53.0999Z" fill="#26A16E"/>
<path d="M319.381 53.0999C320.44 53.0999 321.24 52.5241 321.169 51.8169C321.097 51.1155 320.192 50.5469 319.144 50.5469C318.096 50.5469 317.295 51.1155 317.355 51.8169C317.414 52.5241 318.322 53.0999 319.381 53.0999Z" fill="#26A16E"/>
<path d="M347.048 53.0999C348.107 53.0999 348.836 52.5241 348.677 51.8169C348.518 51.1155 347.543 50.5469 346.495 50.5469C345.447 50.5469 344.715 51.1155 344.863 51.8169C345.008 52.5241 345.987 53.0999 347.048 53.0999Z" fill="#26A16E"/>
<path d="M374.692 53.0493C375.71 53.0493 376.342 52.498 376.105 51.8197C375.87 51.1428 374.867 50.6016 373.86 50.6016C372.854 50.6016 372.219 51.1428 372.444 51.8197C372.67 52.498 373.675 53.0493 374.692 53.0493Z" fill="#26A16E"/>
<path d="M402.308 52.9459C403.237 52.9459 403.754 52.4393 403.464 51.8202C403.171 51.2025 402.191 50.7031 401.27 50.7031C400.346 50.7031 399.825 51.2039 400.108 51.8202C400.39 52.4393 401.374 52.9459 402.308 52.9459Z" fill="#26A16E"/>
<path d="M429.892 52.844C430.738 52.844 431.151 52.385 430.817 51.8207C430.484 51.2579 429.533 50.8047 428.696 50.8047C427.859 50.8047 427.442 51.2579 427.767 51.8207C428.094 52.385 429.048 52.844 429.892 52.844Z" fill="#26A16E"/>
<path d="M457.417 52.6879C458.136 52.6879 458.439 52.2983 458.097 51.8177C457.755 51.34 456.899 50.9531 456.188 50.9531C455.473 50.9531 455.167 51.34 455.504 51.8177C455.84 52.2983 456.699 52.6879 457.417 52.6879Z" fill="#26A16E"/>
<path d="M484.905 52.5357C485.496 52.5357 485.709 52.2139 485.377 51.8185C485.045 51.4245 484.303 51.1055 483.716 51.1055C483.127 51.1055 482.912 51.4245 483.239 51.8185C483.567 52.2153 484.313 52.5357 484.905 52.5357Z" fill="#26A16E"/>
<path d="M512.354 52.3806C512.817 52.3806 512.951 52.1295 512.654 51.8192C512.357 51.5104 511.742 51.2578 511.28 51.2578C510.818 51.2578 510.681 51.5104 510.976 51.8192C511.271 52.1295 511.89 52.3806 512.354 52.3806Z" fill="#26A16E"/>
<path d="M539.763 52.2256C540.101 52.2256 540.178 52.0423 539.933 51.8186C539.688 51.5935 539.22 51.4102 538.884 51.4102C538.548 51.4102 538.468 51.5935 538.712 51.8186C538.956 52.0438 539.425 52.2256 539.763 52.2256Z" fill="#26A16E"/>
<path d="M567.135 52.0734C567.345 52.0734 567.379 51.9594 567.208 51.818C567.037 51.6751 566.729 51.5625 566.518 51.5625C566.308 51.5625 566.275 51.6751 566.445 51.818C566.615 51.9594 566.924 52.0734 567.135 52.0734Z" fill="#26A16E"/>
<path d="M594.47 51.9222C594.554 51.9222 594.563 51.8775 594.489 51.8212C594.416 51.7649 594.284 51.7188 594.201 51.7188C594.117 51.7188 594.11 51.7649 594.185 51.8212C594.258 51.876 594.387 51.9222 594.47 51.9222Z" fill="#26A16E"/>
<path d="M621.914 51.8695C621.956 51.8695 621.954 51.8467 621.916 51.8195C621.876 51.791 621.806 51.7695 621.764 51.7695C621.723 51.7695 621.726 51.7924 621.764 51.8195C621.806 51.8481 621.873 51.8695 621.914 51.8695Z" fill="#26A16E"/>
<path d="M6.20143 71.9404C6.24716 71.9404 6.31717 71.9118 6.35575 71.8818C6.39433 71.8489 6.39004 71.8203 6.34575 71.8203C6.30145 71.8203 6.23001 71.8489 6.19143 71.8818C6.15143 71.9118 6.15571 71.9404 6.20143 71.9404Z" fill="#26A16E"/>
<path d="M36.1298 72.0056C36.2208 72.0056 36.355 71.9508 36.4286 71.8844C36.4979 71.818 36.4834 71.7617 36.3925 71.7617C36.3016 71.7617 36.1674 71.818 36.0966 71.8844C36.0245 71.9508 36.0389 72.0056 36.1298 72.0056Z" fill="#26A16E"/>
<path d="M66.0169 72.1227C66.2016 72.1227 66.4513 72.0144 66.5812 71.8816C66.7068 71.7474 66.6635 71.6406 66.4773 71.6406C66.2954 71.6406 66.0429 71.7474 65.9173 71.8816C65.7874 72.0144 65.835 72.1227 66.0169 72.1227Z" fill="#26A16E"/>
<path d="M95.8733 72.3071C96.1966 72.3071 96.6166 72.1152 96.8128 71.8814C97.0091 71.6461 96.9038 71.457 96.5819 71.457C96.2601 71.457 95.8444 71.6461 95.6467 71.8814C95.4519 72.1152 95.55 72.3071 95.8733 72.3071Z" fill="#26A16E"/>
<path d="M125.831 72.4256C126.245 72.4256 126.753 72.1802 126.968 71.88C127.179 71.5769 127.016 71.3359 126.604 71.3359C126.191 71.3359 125.685 71.5769 125.473 71.88C125.253 72.1802 125.416 72.4256 125.831 72.4256Z" fill="#26A16E"/>
<path d="M155.769 72.611C156.32 72.611 156.961 72.282 157.192 71.8822C157.424 71.4824 157.169 71.1562 156.622 71.1562C156.07 71.1562 155.433 71.4824 155.197 71.8822C154.962 72.282 155.215 72.611 155.769 72.611Z" fill="#26A16E"/>
<path d="M185.79 72.7338C186.432 72.7338 187.134 72.3528 187.35 71.8823C187.562 71.4133 187.217 71.0352 186.578 71.0352C185.936 71.0352 185.237 71.4133 185.021 71.8823C184.798 72.3528 185.142 72.7338 185.79 72.7338Z" fill="#26A16E"/>
<path d="M215.859 72.7921C216.552 72.7921 217.244 72.3851 217.415 71.8814C217.582 71.3792 217.162 70.9766 216.475 70.9766C215.788 70.9766 215.091 71.3792 214.918 71.8814C214.745 72.3851 215.166 72.7921 215.859 72.7921Z" fill="#26A16E"/>
<path d="M245.928 72.9174C246.711 72.9174 247.446 72.4527 247.564 71.8841C247.681 71.3154 247.149 70.8594 246.371 70.8594C245.593 70.8594 244.861 71.3154 244.737 71.8841C244.612 72.4513 245.143 72.9174 245.928 72.9174Z" fill="#26A16E"/>
<path d="M276.041 72.9174C276.825 72.9174 277.502 72.4527 277.549 71.8841C277.597 71.3154 277.008 70.8594 276.23 70.8594C275.452 70.8594 274.777 71.3154 274.722 71.8841C274.669 72.4513 275.256 72.9174 276.041 72.9174Z" fill="#26A16E"/>
<path d="M306.152 72.9766C306.982 72.9766 307.642 72.483 307.619 71.8797C307.597 71.2779 306.908 70.793 306.086 70.793C305.263 70.793 304.609 71.2779 304.625 71.8797C304.641 72.4844 305.322 72.9766 306.152 72.9766Z" fill="#26A16E"/>
<path d="M336.262 72.9174C337.047 72.9174 337.608 72.4527 337.516 71.8841C337.423 71.3154 336.721 70.8594 335.943 70.8594C335.166 70.8594 334.602 71.3154 334.688 71.8841C334.775 72.4513 335.478 72.9174 336.262 72.9174Z" fill="#26A16E"/>
<path d="M366.36 72.8567C367.097 72.8567 367.572 72.4193 367.422 71.8825C367.27 71.347 366.555 70.9141 365.823 70.9141C365.09 70.9141 364.615 71.347 364.761 71.8825C364.905 72.4208 365.621 72.8567 366.36 72.8567Z" fill="#26A16E"/>
<path d="M396.441 72.7921C397.133 72.7921 397.525 72.3851 397.32 71.8814C397.115 71.3792 396.397 70.9766 395.71 70.9766C395.023 70.9766 394.626 71.3792 394.825 71.8814C395.024 72.3851 395.749 72.7921 396.441 72.7921Z" fill="#26A16E"/>
<path d="M426.468 72.6712C427.067 72.6712 427.364 72.3176 427.135 71.8803C426.904 71.4415 426.238 71.0938 425.642 71.0938C425.048 71.0938 424.747 71.4415 424.974 71.8803C425.199 72.3161 425.869 72.6712 426.468 72.6712Z" fill="#26A16E"/>
<path d="M456.475 72.5509C456.982 72.5509 457.197 72.2521 456.956 71.8841C456.718 71.5146 456.114 71.2188 455.611 71.2188C455.107 71.2188 454.89 71.5146 455.127 71.8841C455.365 72.2521 455.969 72.5509 456.475 72.5509Z" fill="#26A16E"/>
<path d="M486.452 72.4256C486.866 72.4256 487.01 72.1802 486.778 71.88C486.544 71.5769 486.02 71.3359 485.609 71.3359C485.196 71.3359 485.051 71.5769 485.281 71.88C485.512 72.1802 486.038 72.4256 486.452 72.4256Z" fill="#26A16E"/>
<path d="M516.334 72.248C516.609 72.248 516.688 72.0892 516.509 71.8857C516.329 71.6822 515.958 71.5234 515.683 71.5234C515.409 71.5234 515.331 71.6822 515.51 71.8857C515.688 72.0878 516.059 72.248 516.334 72.248Z" fill="#26A16E"/>
<path d="M546.24 72.1227C546.424 72.1227 546.459 72.0144 546.323 71.8816C546.188 71.7474 545.928 71.6406 545.745 71.6406C545.56 71.6406 545.525 71.7474 545.659 71.8816C545.794 72.0144 546.056 72.1227 546.24 72.1227Z" fill="#26A16E"/>
<path d="M576.119 72.0056C576.21 72.0056 576.223 71.9508 576.148 71.8844C576.071 71.818 575.934 71.7617 575.843 71.7617C575.752 71.7617 575.739 71.818 575.816 71.8844C575.891 71.9508 576.026 72.0056 576.119 72.0056Z" fill="#26A16E"/>
<path d="M59.647 95.9856C59.6971 95.9856 59.7685 95.9527 59.8014 95.9127C59.8399 95.8727 59.8257 95.8398 59.7756 95.8398C59.7256 95.8398 59.6585 95.8713 59.6213 95.9127C59.587 95.9513 59.5985 95.9856 59.647 95.9856Z" fill="#26A16E"/>
<path d="M92.4933 96.1355C92.6477 96.1355 92.8483 96.0345 92.9378 95.9147C93.0345 95.7935 92.9883 95.6953 92.8339 95.6953C92.6852 95.6953 92.4875 95.7935 92.3894 95.9147C92.3013 96.0345 92.3432 96.1355 92.4933 96.1355Z" fill="#26A16E"/>
<path d="M125.379 96.2829C125.63 96.2829 125.944 96.1184 126.076 95.9135C126.207 95.71 126.105 95.5469 125.856 95.5469C125.602 95.5469 125.292 95.71 125.161 95.9135C125.028 96.1184 125.126 96.2829 125.379 96.2829Z" fill="#26A16E"/>
<path d="M158.341 96.3512C158.644 96.3512 158.995 96.1549 159.12 95.9124C159.249 95.67 159.102 95.4766 158.801 95.4766C158.498 95.4766 158.152 95.67 158.022 95.9124C157.897 96.1549 158.039 96.3512 158.341 96.3512Z" fill="#26A16E"/>
<path d="M191.286 96.4996C191.691 96.4996 192.123 96.2355 192.25 95.9136C192.381 95.5875 192.157 95.332 191.755 95.332C191.352 95.332 190.92 95.5889 190.788 95.9136C190.656 96.2369 190.88 96.4996 191.286 96.4996Z" fill="#26A16E"/>
<path d="M224.291 96.5755C224.747 96.5755 225.196 96.2796 225.299 95.9145C225.397 95.5508 225.109 95.2578 224.656 95.2578C224.203 95.2578 223.754 95.5508 223.655 95.9145C223.549 96.2796 223.835 96.5755 224.291 96.5755Z" fill="#26A16E"/>
<path d="M257.312 96.6475C257.818 96.6475 258.28 96.3155 258.338 95.9128C258.403 95.5073 258.043 95.1797 257.54 95.1797C257.036 95.1797 256.578 95.5073 256.511 95.9128C256.45 96.3155 256.806 96.6475 257.312 96.6475Z" fill="#26A16E"/>
<path d="M290.353 96.7229C290.908 96.7229 291.37 96.3592 291.385 95.9133C291.396 95.4702 290.956 95.1094 290.403 95.1094C289.85 95.1094 289.389 95.4702 289.376 95.9133C289.357 96.3592 289.797 96.7229 290.353 96.7229Z" fill="#26A16E"/>
<path d="M323.404 96.7229C323.959 96.7229 324.376 96.3592 324.336 95.9133C324.293 95.4702 323.808 95.1094 323.256 95.1094C322.704 95.1094 322.287 95.4702 322.327 95.9133C322.363 96.3592 322.848 96.7229 323.404 96.7229Z" fill="#26A16E"/>
<path d="M356.457 96.7229C357.012 96.7229 357.385 96.3592 357.289 95.9133C357.191 95.4702 356.663 95.1094 356.11 95.1094C355.558 95.1094 355.185 95.4702 355.28 95.9133C355.371 96.3592 355.901 96.7229 356.457 96.7229Z" fill="#26A16E"/>
<path d="M389.484 96.6475C389.989 96.6475 390.289 96.3155 390.148 95.9128C390.014 95.5073 389.491 95.1797 388.987 95.1797C388.485 95.1797 388.188 95.5073 388.321 95.9128C388.458 96.3155 388.979 96.6475 389.484 96.6475Z" fill="#26A16E"/>
<path d="M422.492 96.5755C422.949 96.5755 423.178 96.2796 423.009 95.9145C422.837 95.5508 422.332 95.2578 421.879 95.2578C421.426 95.2578 421.195 95.5508 421.364 95.9145C421.53 96.2796 422.038 96.5755 422.492 96.5755Z" fill="#26A16E"/>
<path d="M455.482 96.4996C455.887 96.4996 456.06 96.2355 455.87 95.9136C455.681 95.5875 455.2 95.332 454.798 95.332C454.393 95.332 454.22 95.5889 454.408 95.9136C454.597 96.2369 455.078 96.4996 455.482 96.4996Z" fill="#26A16E"/>
<path d="M488.404 96.3512C488.707 96.3512 488.817 96.1549 488.641 95.9124C488.469 95.67 488.081 95.4766 487.779 95.4766C487.477 95.4766 487.372 95.67 487.542 95.9124C487.717 96.1549 488.101 96.3512 488.404 96.3512Z" fill="#26A16E"/>
<path d="M521.287 96.2027C521.489 96.2027 521.54 96.0757 521.407 95.9126C521.274 95.7524 521.002 95.6211 520.801 95.6211C520.599 95.6211 520.546 95.7524 520.678 95.9126C520.811 96.0757 521.085 96.2027 521.287 96.2027Z" fill="#26A16E"/>
<path d="M554.203 96.1355C554.355 96.1355 554.384 96.0345 554.265 95.9147C554.151 95.7935 553.933 95.6953 553.782 95.6953C553.63 95.6953 553.606 95.7935 553.72 95.9147C553.835 96.0345 554.05 96.1355 554.203 96.1355Z" fill="#26A16E"/>
<path d="M587.026 95.9856C587.076 95.9856 587.079 95.9527 587.034 95.9127C586.994 95.8727 586.913 95.8398 586.863 95.8398C586.813 95.8398 586.813 95.8713 586.854 95.9127C586.899 95.9513 586.976 95.9856 587.026 95.9856Z" fill="#26A16E"/>
<path d="M88.2587 125.317C88.313 125.317 88.3873 125.274 88.4216 125.226C88.4588 125.177 88.443 125.133 88.3873 125.133C88.3316 125.133 88.2587 125.176 88.2201 125.226C88.1873 125.274 88.203 125.317 88.2587 125.317Z" fill="#26A16E"/>
<path d="M124.789 125.405C124.9 125.405 125.036 125.325 125.095 125.227C125.15 125.129 125.106 125.047 124.997 125.047C124.885 125.047 124.745 125.129 124.691 125.227C124.63 125.325 124.678 125.405 124.789 125.405Z" fill="#26A16E"/>
<path d="M161.295 125.587C161.522 125.587 161.773 125.427 161.867 125.228C161.956 125.03 161.855 124.867 161.629 124.867C161.406 124.867 161.148 125.03 161.057 125.228C160.963 125.426 161.073 125.587 161.295 125.587Z" fill="#26A16E"/>
<path d="M197.91 125.587C198.137 125.587 198.368 125.427 198.438 125.228C198.503 125.03 198.382 124.867 198.156 124.867C197.935 124.867 197.695 125.03 197.629 125.228C197.558 125.426 197.687 125.587 197.91 125.587Z" fill="#26A16E"/>
<path d="M234.512 125.678C234.791 125.678 235.061 125.48 235.115 125.229C235.169 124.981 234.983 124.777 234.706 124.777C234.424 124.777 234.154 124.981 234.099 125.229C234.045 125.48 234.231 125.678 234.512 125.678Z" fill="#26A16E"/>
<path d="M271.123 125.77C271.461 125.77 271.757 125.527 271.783 125.229C271.811 124.929 271.56 124.688 271.227 124.688C270.891 124.688 270.595 124.929 270.565 125.229C270.537 125.527 270.79 125.77 271.123 125.77Z" fill="#26A16E"/>
<path d="M307.766 125.77C308.103 125.77 308.37 125.527 308.359 125.229C308.352 124.929 308.07 124.688 307.737 124.688C307.401 124.688 307.134 124.929 307.141 125.229C307.151 125.527 307.432 125.77 307.766 125.77Z" fill="#26A16E"/>
<path d="M344.401 125.77C344.739 125.77 344.976 125.527 344.927 125.229C344.882 124.929 344.57 124.688 344.238 124.688C343.902 124.688 343.664 124.929 343.709 125.229C343.756 125.527 344.066 125.77 344.401 125.77Z" fill="#26A16E"/>
<path d="M381.02 125.674C381.299 125.674 381.471 125.476 381.399 125.225C381.329 124.977 381.044 124.773 380.765 124.773C380.485 124.773 380.313 124.977 380.383 125.225C380.453 125.476 380.738 125.674 381.02 125.674Z" fill="#26A16E"/>
<path d="M417.605 125.587C417.832 125.587 417.943 125.427 417.865 125.228C417.784 125.03 417.541 124.867 417.316 124.867C417.096 124.867 416.976 125.03 417.057 125.228C417.133 125.426 417.383 125.587 417.605 125.587Z" fill="#26A16E"/>
<path d="M454.18 125.497C454.349 125.497 454.42 125.372 454.342 125.224C454.265 125.074 454.065 124.953 453.896 124.953C453.727 124.953 453.658 125.074 453.734 125.224C453.812 125.372 454.011 125.497 454.18 125.497Z" fill="#26A16E"/>
<path d="M490.725 125.405C490.837 125.405 490.873 125.325 490.811 125.227C490.746 125.129 490.603 125.047 490.492 125.047C490.381 125.047 490.342 125.129 490.406 125.227C490.469 125.325 490.614 125.405 490.725 125.405Z" fill="#26A16E"/>
<path d="M527.244 125.317C527.299 125.317 527.314 125.274 527.275 125.226C527.239 125.177 527.162 125.133 527.107 125.133C527.051 125.133 527.039 125.176 527.075 125.226C527.112 125.274 527.188 125.317 527.244 125.317Z" fill="#26A16E"/>
</g>
</svg>
