<svg width="219" height="199" viewBox="0 0 219 199" fill="none" xmlns="http://www.w3.org/2000/svg">
<g clipPath="url(#clip0_4785_25691)">
<path d="M49.7753 265.374C49.3389 263.534 50.0702 263.486 51.0373 262.519C52.5707 260.986 65.9343 250.158 66.9368 250.017C88.3681 257.094 135.512 270.363 138.225 235.285C140.773 202.306 97.8512 148.133 73.3768 127.952C65.946 121.83 64.3184 119.955 54.5168 123.281C33.7225 130.334 -9.70626 165.636 26.0676 182.928C27.9548 185.688 18.8727 191.361 16.384 192.47C-2.31087 200.761 -9.42318 172.583 -7.88984 158.76C-4.7642 130.629 49.8932 89.5003 77.5286 104.928C98.4645 116.617 135.689 165.129 146.352 187.079C184.85 266.412 129.851 296.63 58.0317 268.322C55.2953 267.249 53.4435 264.524 49.7753 265.374Z" fill="#29F99D" fill-opacity="0.0431373"/>
<path d="M15.5701 60.1639L-1.72115 75.1906C-11.4991 72.289 -20.935 68.6326 -31.1612 67.3824C-46.6714 65.4716 -69.4473 66.828 -71.7119 86.6906C-75.675 121.615 -36.5396 170.812 -11.5699 192.868C-4.3632 199.237 -0.671417 204.533 9.75525 202.351C21.845 199.815 51.4265 176.862 53.2194 164.442C54.7881 153.579 50.7306 144.851 39.9265 141.513C38.4286 141.36 39.0301 140.039 39.7496 139.166C40.5635 138.187 49.6809 131.841 50.9194 131.464C68.6235 126.144 75.8183 150.961 74.4265 164.419C71.3599 194.142 14.0132 238.16 -13.8109 218.663C-22.1617 212.813 -38.2027 196.336 -45.3268 188.315C-69.3058 161.317 -104.348 109.113 -88.7791 71.9706C-71.936 31.7973 -15.0612 46.6234 15.5819 60.1757L15.5701 60.1639Z" fill="#29F99D" fill-opacity="0.0431373"/>
<path d="M-71.7175 176.924C-71.3518 177.443 -69.559 178.116 -68.7452 179.213C-64.7231 184.674 -60.1113 189.639 -56.337 195.277C-59.0026 206.789 -64.558 217.652 -65.6667 229.553C-71.7411 294.366 -1.37288 259.04 26.5574 239.213C53.2492 220.282 75.282 194.393 95.1917 168.68C112.188 186.183 98.2112 199.665 85.7676 213.5C56.304 246.266 -5.87852 296.701 -52.657 285.838C-88.5016 277.511 -89.9759 241.065 -83.5006 211.118C-82.8518 208.098 -80.9175 201.611 -79.9621 198.143C-79.0067 194.676 -77.5795 189.899 -76.4236 186.348C-75.5626 183.718 -73.4985 179.13 -71.7057 176.913L-71.7175 176.924Z" fill="#29F99D" fill-opacity="0.0431373"/>
<path d="M146.485 114.412C145.789 117.078 143.807 123.753 142.946 126.207C142.522 127.398 140.233 132.541 139.408 134.463C138.346 136.952 135.315 142.153 133.51 143.899C130.55 140.03 120.961 131.078 120.536 126.679C125.82 109.258 138.464 74.1206 120.453 60.816C99.777 45.5417 58.1765 68.9309 39.9534 81.5986C12.2355 100.871 -11.7199 126.962 -31.0281 154.491C-50.1948 136.787 -32.2901 120.274 -19.245 106.132C6.03139 78.7324 50.2386 43.9611 87.4514 37.0847C142.121 26.9883 158.799 67.2796 146.485 114.4V114.412Z" fill="#29F99D" fill-opacity="0.0431373"/>
<path opacity="0.2" d="M146.493 114.41C174.045 151.599 211.518 197.871 206.635 247.091C205.278 260.808 196.456 273.087 181.877 273.629C201.763 255.029 193.46 220.658 184.802 198.177C174.788 172.146 158.146 149.288 142.954 126.205C143.815 123.752 145.797 117.076 146.493 114.41Z" fill="#29F99D" fill-opacity="0.0431373"/>
<path opacity="0.5" d="M139.412 134.46C156.055 156.422 172.98 181.356 182.758 207.293C189.906 226.259 197.832 258.79 177.557 272.259C175.268 273.781 164.547 278.357 162.424 278.357H145.321C144.731 274.831 146.253 276.494 148.093 275.869C206.289 256.23 156.798 174.362 133.526 143.896C135.331 142.15 138.362 136.949 139.424 134.46H139.412Z" fill="#29F99D" fill-opacity="0.0431373"/>
<path d="M218.439 88.4744C208.649 97.5564 205.099 106.804 206.632 120.309C199.013 110.236 189.129 104.303 175.978 106.155C178.089 100.647 182.937 98.4882 185.437 92.6262C187.938 86.7641 188.138 81.6923 187.772 75.5C193.351 77.6349 196.064 83.0487 201.914 85.5256C206.845 87.6015 213.084 88.4508 218.427 88.4861L218.439 88.4744Z" fill="#29F99D" fill-opacity="0.0431373"/>
<path d="M21.4602 11.8067C12.8853 18.3764 8.20276 26.5503 9.66533 37.7318L-2.96699 28.5554L-17.4629 27.1164C-8.32186 20.2282 -4.19366 11.6651 -5.65622 0C1.23199 9.14103 9.79507 13.2692 21.4602 11.8067Z" fill="#29F99D" fill-opacity="0.0431373"/>
</g>
<defs>
<clipPath id="clip0_4785_25691">
<rect width="372.706" height="322" fill="white" transform="translate(-154.268)"/>
</clipPath>
</defs>
</svg>
