<svg width="227" height="244" viewBox="0 0 227 244" fill="none" xmlns="http://www.w3.org/2000/svg">
<g clipPath="url(#clip0_4785_25706)">
<path d="M204.042 187.374C203.605 185.534 204.337 185.486 205.304 184.519C206.837 182.986 220.201 172.158 221.203 172.017C242.635 179.094 289.779 192.363 292.492 157.285C295.039 124.306 252.118 70.1326 227.643 49.9516C220.213 43.8301 218.585 41.9547 208.783 45.2808C187.989 52.3342 144.56 87.6362 180.334 104.928C182.221 107.688 173.139 113.361 170.651 114.47C151.956 122.761 144.843 94.5834 146.377 80.7598C149.502 52.6291 204.16 11.5003 231.795 26.928C252.731 38.6167 289.956 87.129 300.618 109.079C339.117 188.412 284.117 218.63 212.298 190.322C209.562 189.249 207.71 186.524 204.042 187.374Z" fill="#29F99D" fill-opacity="0.0431373"/>
<path d="M169.838 -17.8361L152.546 -2.80942C142.768 -5.71095 133.333 -9.36736 123.106 -10.6176C107.596 -12.5284 84.8203 -11.172 82.5556 8.69059C78.5926 43.6152 117.728 92.8116 142.698 114.868C149.904 121.237 153.596 126.533 164.023 124.351C176.113 121.815 205.694 98.8624 207.487 86.4424C209.056 75.5793 204.998 66.8511 194.194 63.5132C192.696 63.3598 193.298 62.0388 194.017 61.166C194.831 60.187 203.948 53.8414 205.187 53.4639C222.891 48.1444 230.086 72.9608 228.694 86.4188C225.627 116.142 168.281 160.16 140.457 140.663C132.106 134.813 116.065 118.336 108.941 110.315C84.9618 83.3167 49.9192 31.1126 65.4885 -6.02942C82.3316 -46.2027 139.206 -31.3766 169.849 -17.8243L169.838 -17.8361Z" fill="#29F99D" fill-opacity="0.0431373"/>
<path d="M82.5511 98.9243C82.9167 99.4433 84.7095 100.116 85.5234 101.213C89.5454 106.674 94.1572 111.639 97.9316 117.277C95.2659 128.789 89.7106 139.652 88.6018 151.553C82.5275 216.366 152.896 181.04 180.826 161.213C207.518 142.282 229.551 116.393 249.46 90.6797C266.457 108.183 252.48 121.665 240.036 135.5C210.573 168.266 148.39 218.701 101.612 207.838C65.767 199.511 64.2926 163.065 70.768 133.118C71.4167 130.098 73.3511 123.611 74.3065 120.143C75.2618 116.676 76.689 111.899 77.8449 108.348C78.7059 105.718 80.77 101.13 82.5629 98.9125L82.5511 98.9243Z" fill="#29F99D" fill-opacity="0.0431373"/>
<path d="M300.752 36.4119C300.056 39.0776 298.075 45.7534 297.214 48.2068C296.789 49.3981 294.501 54.5406 293.675 56.4632C292.614 58.9519 289.583 64.1535 287.778 65.8991C284.817 62.0304 275.228 53.0781 274.804 48.6786C280.088 31.2576 292.732 -3.87937 274.721 -17.184C254.045 -32.4583 212.444 -9.06911 194.221 3.59858C166.503 22.8714 142.548 48.9616 123.239 76.4909C104.073 58.7868 121.977 42.274 135.023 28.1319C160.299 0.73243 204.506 -34.0389 241.719 -40.9153C296.388 -51.0117 313.066 -10.7204 300.752 36.4001V36.4119Z" fill="#29F99D" fill-opacity="0.0431373"/>
<path opacity="0.2" d="M70.7549 133.128C52.8149 104.302 33.4831 71.4765 24.4482 38.4863C17.4539 12.9622 13.5498 -35.5502 50.7036 -36.7061L38.3308 -22.564C29.2723 -0.200924 33.8959 24.6862 40.6898 47.0139C48.5334 72.7975 62.0149 96.3755 74.2934 120.154C73.338 123.622 71.4036 130.109 70.7549 133.128Z" fill="#29F99D" fill-opacity="0.0431373"/>
<path opacity="0.5" d="M77.8292 108.358C75.3168 108.901 75.2579 107.014 74.2907 105.469C56.9051 77.3378 24.6343 8.38497 41.784 -22.6237C49.5686 -36.7068 70.9646 -42.3802 84.8943 -34.9376C34.3887 -24.7468 52.9302 34.8998 67.0015 67.8783C70.8466 76.9014 77.0861 91.126 82.5353 98.9342C80.7425 101.152 78.6784 105.74 77.8174 108.37L77.8292 108.358Z" fill="#29F99D" fill-opacity="0.0431373"/>
<path d="M42.4497 128.42C33.3795 137.491 28.921 147.092 30.6431 160.255C23.1651 149.969 12.9272 144.827 0 146.101L10.6862 130.26C12.6559 124.292 13.1395 119.22 11.8067 113.087C19.4497 123.443 29.322 128.857 42.4615 128.432L42.4497 128.42Z" fill="#29F99D" fill-opacity="0.0431373"/>
<path d="M211.111 216.885C201.97 223.773 197.841 232.336 199.304 244.001C192.416 234.86 183.853 230.732 172.188 232.195C181.329 225.306 185.457 216.743 183.994 205.078C190.882 214.219 199.445 218.347 211.111 216.885Z" fill="#29F99D" fill-opacity="0.0431373"/>
</g>
<defs>
<clipPath id="clip0_4785_25706">
<rect width="372.706" height="322" fill="white" transform="translate(0 -78)"/>
</clipPath>
</defs>
</svg>
