<svg width="1439" height="454" viewBox="0 0 1439 454" fill="none" xmlns="http://www.w3.org/2000/svg">
<g clip-path="url(#clip0_1_58862)">
<mask id="mask0_1_58862" style="mask-type:luminance" maskUnits="userSpaceOnUse" x="-155" y="-364" width="1750" height="818">
<path d="M1594.56 453.096L-154.565 453.096L-154.565 -363.534L1594.57 -363.534L1594.56 453.096Z" fill="white"/>
</mask>
<g mask="url(#mask0_1_58862)">
<g filter="url(#filter0_f_1_58862)">
<path d="M442.313 -1130.53C270.472 -1066.29 126.224 -944.446 34.1501 -785.768C-57.9303 -627.095 -92.1403 -441.402 -62.65 -260.332C-33.1678 -79.2618 58.1878 85.984 195.85 207.248C333.515 328.511 508.967 398.291 692.312 404.698C875.656 411.104 1055.55 353.739 1201.34 242.378C1347.13 131.017 1449.8 -27.4494 1491.85 -206.021C1533.9 -384.594 1512.73 -572.222 1431.96 -736.938C1351.18 -901.65 1215.78 -1033.26 1048.85 -1109.34L1046.15 -1103.42C1211.71 -1027.96 1345.99 -897.432 1426.11 -734.07C1506.22 -570.708 1527.22 -384.62 1485.51 -207.515C1443.8 -30.4102 1341.98 126.755 1197.39 237.201C1052.79 347.648 874.378 404.541 692.539 398.189C510.701 391.837 336.692 322.63 200.16 202.362C63.6288 82.0917 -26.9801 -81.7952 -56.2299 -261.378C-85.4703 -440.961 -51.5399 -625.127 39.7801 -782.497C131.096 -939.875 274.161 -1060.72 444.593 -1124.43L442.313 -1130.53Z" fill="url(#paint0_linear_1_58862)" fill-opacity="0.8"/>
</g>
<path d="M442.313 -1130.53C270.472 -1066.29 126.224 -944.446 34.1501 -785.768C-57.9303 -627.095 -92.1403 -441.402 -62.65 -260.332C-33.1678 -79.2618 58.1878 85.984 195.85 207.248C333.515 328.511 508.967 398.291 692.312 404.698C875.656 411.104 1055.55 353.739 1201.34 242.378C1347.13 131.017 1449.8 -27.4494 1491.85 -206.021C1533.9 -384.594 1512.73 -572.222 1431.96 -736.938C1351.18 -901.65 1215.78 -1033.26 1048.85 -1109.34L963.757 -922.628C1087.5 -866.235 1187.86 -768.681 1247.73 -646.587C1307.61 -524.494 1323.3 -385.416 1292.13 -253.051C1260.96 -120.686 1184.86 -3.22323 1076.79 79.3222C968.724 161.868 835.379 204.389 699.476 199.64C563.574 194.891 433.522 143.167 331.48 53.2807C229.439 -36.6068 161.72 -159.093 139.86 -293.31C118.005 -427.529 143.366 -565.172 211.62 -682.788C279.869 -800.407 386.791 -890.72 514.166 -938.338L442.313 -1130.53Z" fill="url(#paint1_linear_1_58862)"/>
<g filter="url(#filter1_f_1_58862)">
<path d="M442.313 -1130.53C270.472 -1066.29 126.224 -944.446 34.1501 -785.768C-57.9303 -627.095 -92.1403 -441.402 -62.65 -260.332C-33.1678 -79.2618 58.1878 85.984 195.85 207.248C333.515 328.511 508.967 398.291 692.312 404.698C875.656 411.104 1055.55 353.739 1201.34 242.378C1347.13 131.017 1449.8 -27.4494 1491.85 -206.021C1533.9 -384.594 1512.73 -572.222 1431.96 -736.938C1351.18 -901.65 1215.78 -1033.26 1048.85 -1109.34L986.272 -972.038C1121.44 -910.433 1231.07 -803.867 1296.48 -670.498C1361.88 -537.125 1379.02 -385.2 1344.97 -240.607C1319.55 -132.634 1266.58 -33.0904 1191.24 48.3229C1115.9 129.736 1020.75 190.241 915.064 223.942C809.381 257.642 696.77 263.387 588.205 240.618C479.641 217.849 378.827 167.342 295.59 94.0197C184.125 -4.16995 110.154 -137.97 86.2801 -284.584C62.4 -431.199 90.1002 -581.559 164.66 -710.038C239.22 -838.518 356.01 -937.178 495.154 -989.188L442.313 -1130.53Z" fill="url(#paint2_radial_1_58862)" fill-opacity="0.2"/>
</g>
<path d="M720 -1180.74C282.06 -1180.74 -72.9611 -825.722 -72.9611 -387.781C-72.9612 50.1588 282.06 405.18 720 405.18C1157.94 405.18 1512.96 50.159 1512.96 -387.781C1512.96 -825.722 1157.94 -1180.74 720 -1180.74Z" fill="url(#paint3_radial_1_58862)" fill-opacity="0.01"/>
<path d="M442.313 -1130.53C270.472 -1066.29 126.224 -944.446 34.1501 -785.768C-57.9303 -627.095 -92.1403 -441.402 -62.65 -260.332C-33.1678 -79.2618 58.1878 85.984 195.85 207.248C333.515 328.511 508.967 398.291 692.312 404.698C875.656 411.104 1055.55 353.739 1201.34 242.378C1347.13 131.017 1449.8 -27.4494 1491.85 -206.021C1533.9 -384.594 1512.73 -572.222 1431.96 -736.938C1351.18 -901.65 1215.78 -1033.26 1048.85 -1109.34L961.985 -918.738C1084.82 -862.756 1184.45 -765.912 1243.9 -644.708C1303.34 -523.502 1318.91 -385.435 1287.97 -254.033C1257.02 -122.631 1181.48 -6.02218 1074.2 75.9237C966.915 157.869 834.54 200.081 699.626 195.368C564.713 190.655 435.607 139.307 334.31 50.0737C233.009 -39.1592 165.781 -160.755 144.08 -293.997C122.384 -427.24 147.557 -563.884 215.31 -680.648C283.069 -797.407 389.214 -887.062 515.662 -934.338L442.313 -1130.53Z" fill="url(#paint4_radial_1_58862)" fill-opacity="0.2"/>
<path d="M720 -1180.05C282.44 -1180.05 -72.2719 -825.342 -72.2719 -387.782C-72.2719 49.7778 282.44 404.49 720 404.49C1157.56 404.49 1512.27 49.778 1512.27 -387.782C1512.27 -825.342 1157.56 -1180.05 720 -1180.05Z" stroke="url(#paint5_radial_1_58862)" stroke-opacity="0.05" stroke-width="1.379"/>
<g filter="url(#filter2_f_1_58862)">
<path d="M720 -1179.36C282.821 -1179.36 -71.5819 -824.96 -71.582 -387.781C-71.582 49.3973 282.821 403.801 720 403.801C1157.18 403.801 1511.58 49.3974 1511.58 -387.781C1511.58 -824.96 1157.18 -1179.36 720 -1179.36Z" stroke="url(#paint6_radial_1_58862)" stroke-opacity="0.5" stroke-width="2.759"/>
</g>
<g filter="url(#filter3_f_1_58862)">
<path d="M720 -1180.05C282.44 -1180.05 -72.2719 -825.342 -72.2719 -387.782C-72.2719 49.7778 282.44 404.49 720 404.49C1157.56 404.49 1512.27 49.778 1512.27 -387.782C1512.27 -825.342 1157.56 -1180.05 720 -1180.05Z" stroke="url(#paint7_radial_1_58862)" stroke-opacity="0.6" stroke-width="1.379"/>
</g>
<path d="M720 -1179.36C282.821 -1179.36 -71.5819 -824.96 -71.582 -387.781C-71.582 49.3973 282.821 403.801 720 403.801C1157.18 403.801 1511.58 49.3974 1511.58 -387.781C1511.58 -824.96 1157.18 -1179.36 720 -1179.36Z" stroke="url(#paint8_radial_1_58862)" stroke-opacity="0.2" stroke-width="2.759"/>
<path d="M720 -1180.05C282.44 -1180.05 -72.2719 -825.342 -72.2719 -387.782C-72.2719 49.7778 282.44 404.49 720 404.49C1157.56 404.49 1512.27 49.778 1512.27 -387.782C1512.27 -825.342 1157.56 -1180.05 720 -1180.05Z" stroke="url(#paint9_radial_1_58862)" stroke-opacity="0.2" stroke-width="1.379"/>
<g filter="url(#filter4_f_1_58862)">
<path d="M720 -1179.36C282.821 -1179.36 -71.5819 -824.96 -71.582 -387.781C-71.582 49.3973 282.821 403.801 720 403.801C1157.18 403.801 1511.58 49.3974 1511.58 -387.781C1511.58 -824.96 1157.18 -1179.36 720 -1179.36Z" stroke="url(#paint10_radial_1_58862)" stroke-opacity="0.8" stroke-width="2.759"/>
</g>
<path d="M720 -1179.36C282.821 -1179.36 -71.5819 -824.96 -71.582 -387.781C-71.582 49.3973 282.821 403.801 720 403.801C1157.18 403.801 1511.58 49.3974 1511.58 -387.781C1511.58 -824.96 1157.18 -1179.36 720 -1179.36Z" stroke="url(#paint11_radial_1_58862)" stroke-opacity="0.2" stroke-width="2.759"/>
<g filter="url(#filter5_f_1_58862)">
<path d="M720 -1179.36C282.821 -1179.36 -71.5819 -824.96 -71.582 -387.781C-71.582 49.3973 282.821 403.801 720 403.801C1157.18 403.801 1511.58 49.3974 1511.58 -387.781C1511.58 -824.96 1157.18 -1179.36 720 -1179.36Z" stroke="url(#paint12_radial_1_58862)" stroke-opacity="0.6" stroke-width="2.759"/>
</g>
<g filter="url(#filter6_f_1_58862)">
<path d="M442.313 -1130.53C270.472 -1066.29 126.224 -944.446 34.1501 -785.768C-57.9303 -627.095 -92.1403 -441.402 -62.65 -260.332C-33.1678 -79.2618 58.1878 85.984 195.85 207.248C333.515 328.511 508.967 398.291 692.312 404.698C875.656 411.104 1055.55 353.739 1201.34 242.378C1347.13 131.017 1449.8 -27.4494 1491.85 -206.021C1533.9 -384.594 1512.73 -572.222 1431.96 -736.938C1351.18 -901.65 1215.78 -1033.26 1048.85 -1109.34L1041.45 -1093.1C1204.63 -1018.73 1336.97 -890.085 1415.93 -729.078C1474.9 -608.846 1501.7 -475.39 1493.74 -341.715C1485.79 -208.041 1443.33 -78.7082 1370.52 33.6775C1297.71 146.063 1197.02 237.668 1078.27 299.565C959.523 361.461 826.765 391.538 692.935 386.863C513.717 380.602 342.214 312.392 207.65 193.857C73.0822 75.324 -16.2203 -86.2034 -45.04 -263.2C-73.8592 -440.197 -40.4202 -621.711 49.5801 -776.818C139.59 -931.92 280.591 -1051.02 448.562 -1113.82L442.313 -1130.53Z" fill="url(#paint13_radial_1_58862)" fill-opacity="0.2"/>
</g>
<g filter="url(#filter7_f_1_58862)">
<path d="M442.313 -1130.53C270.472 -1066.29 126.224 -944.446 34.1501 -785.768C-57.9303 -627.095 -92.1403 -441.402 -62.65 -260.332C-33.1678 -79.2618 58.1878 85.984 195.85 207.248C333.515 328.511 508.967 398.291 692.312 404.698C875.656 411.104 1055.55 353.739 1201.34 242.378C1347.13 131.017 1449.8 -27.4494 1491.85 -206.021C1533.9 -384.594 1512.73 -572.222 1431.96 -736.938C1351.18 -901.65 1215.78 -1033.26 1048.85 -1109.34L987.113 -973.878C1122.71 -912.08 1232.68 -805.179 1298.3 -671.388C1363.91 -537.595 1381.11 -385.191 1346.95 -240.143C1312.79 -95.0949 1229.4 33.6226 1110.98 124.078C992.555 214.532 846.433 261.127 697.508 255.923C548.584 250.72 406.07 194.04 294.25 95.5417C182.432 -2.95715 108.227 -137.181 84.2801 -284.258C60.3278 -431.336 88.1125 -582.169 162.9 -711.058C237.698 -839.942 354.865 -938.908 494.443 -991.098L442.313 -1130.53Z" fill="url(#paint14_linear_1_58862)" fill-opacity="0.5"/>
</g>
<g filter="url(#filter8_f_1_58862)">
<path d="M442.313 -1130.53C270.472 -1066.29 126.224 -944.446 34.1501 -785.768C-57.9303 -627.095 -92.1403 -441.402 -62.65 -260.332C-33.1678 -79.2618 58.1878 85.984 195.85 207.248C333.515 328.511 508.967 398.291 692.312 404.698C875.656 411.104 1055.55 353.739 1201.34 242.378C1347.13 131.017 1449.8 -27.4494 1491.85 -206.021C1533.9 -384.594 1512.73 -572.222 1431.96 -736.938C1351.18 -901.65 1215.78 -1033.26 1048.85 -1109.34L1020.01 -1046.07C1133.74 -994.236 1232.1 -913.825 1305.5 -812.672C1378.91 -711.518 1424.85 -593.073 1438.87 -468.879C1452.88 -344.685 1434.47 -218.98 1385.45 -104.015C1336.42 10.9501 1258.45 111.254 1159.13 187.12C1076.5 250.234 981.243 294.796 879.838 317.769C778.433 340.742 673.268 341.587 571.508 320.245C469.747 298.903 373.783 255.877 290.153 194.098C206.522 132.319 137.192 53.2379 86.8853 -37.756C36.5784 -128.75 6.47711 -229.519 -1.36773 -333.197C-9.21257 -436.875 5.38351 -541.025 41.426 -638.553C77.4685 -736.08 134.11 -824.693 207.492 -898.352C280.875 -972.012 369.272 -1028.99 466.663 -1065.4L442.313 -1130.53Z" fill="url(#paint15_linear_1_58862)" fill-opacity="0.5"/>
</g>
<g filter="url(#filter9_f_1_58862)">
<path d="M442.313 -1130.53C270.472 -1066.29 126.224 -944.446 34.1501 -785.768C-57.9303 -627.095 -92.1403 -441.402 -62.65 -260.332C-33.1678 -79.2618 58.1878 85.984 195.85 207.248C333.515 328.511 508.967 398.291 692.312 404.698C875.656 411.104 1055.55 353.739 1201.34 242.378C1347.13 131.017 1449.8 -27.4494 1491.85 -206.021C1533.9 -384.594 1512.73 -572.222 1431.96 -736.938C1351.18 -901.65 1215.78 -1033.26 1048.85 -1109.34L1041.44 -1093.08C1204.61 -1018.71 1336.95 -890.068 1415.91 -729.068C1474.87 -608.841 1501.68 -475.389 1493.72 -341.719C1485.76 -208.048 1443.31 -78.72 1370.5 33.6621C1297.69 146.044 1197 237.646 1078.26 299.54C959.515 361.434 826.761 391.509 692.936 386.834C513.725 380.572 342.23 312.365 207.67 193.835C73.1095 75.305 -16.1893 -86.2151 -45.0106 -263.204C-73.8318 -440.193 -40.3924 -621.7 49.6101 -776.798C139.61 -931.898 280.61 -1050.99 448.572 -1113.79L442.313 -1130.53Z" fill="url(#paint16_radial_1_58862)" fill-opacity="0.5"/>
</g>
<g filter="url(#filter10_f_1_58862)">
<path d="M442.313 -1130.53C270.472 -1066.29 126.224 -944.446 34.1501 -785.768C-57.9303 -627.095 -92.1403 -441.402 -62.65 -260.332C-33.1678 -79.2618 58.1878 85.984 195.85 207.248C333.515 328.511 508.967 398.291 692.312 404.698C875.656 411.104 1055.55 353.739 1201.34 242.378C1347.13 131.017 1449.8 -27.4494 1491.85 -206.021C1533.9 -384.594 1512.73 -572.222 1431.96 -736.938C1351.18 -901.65 1215.78 -1033.26 1048.85 -1109.34L1041.44 -1093.08C1204.61 -1018.71 1336.95 -890.068 1415.91 -729.068C1474.87 -608.841 1501.68 -475.389 1493.72 -341.719C1485.76 -208.048 1443.31 -78.72 1370.5 33.6621C1297.69 146.044 1197 237.646 1078.26 299.54C959.515 361.434 826.761 391.509 692.936 386.834C513.725 380.572 342.23 312.365 207.67 193.835C73.1095 75.305 -16.1893 -86.2151 -45.0106 -263.204C-73.8318 -440.193 -40.3924 -621.7 49.6101 -776.798C139.61 -931.898 280.61 -1050.99 448.572 -1113.79L442.313 -1130.53Z" fill="url(#paint17_radial_1_58862)" fill-opacity="0.5"/>
</g>
<g filter="url(#filter11_f_1_58862)">
<path d="M442.313 -1130.53C270.472 -1066.29 126.224 -944.446 34.1501 -785.768C-57.9303 -627.095 -92.1403 -441.402 -62.65 -260.332C-33.1678 -79.2618 58.1878 85.984 195.85 207.248C333.515 328.511 508.967 398.291 692.312 404.698C875.656 411.104 1055.55 353.739 1201.34 242.378C1347.13 131.017 1449.8 -27.4494 1491.85 -206.021C1533.9 -384.594 1512.73 -572.222 1431.96 -736.938C1351.18 -901.65 1215.78 -1033.26 1048.85 -1109.34L1046.15 -1103.42C1211.71 -1027.96 1345.99 -897.432 1426.11 -734.07C1506.22 -570.708 1527.22 -384.62 1485.51 -207.515C1443.8 -30.4102 1341.98 126.755 1197.39 237.201C1052.79 347.648 874.378 404.541 692.539 398.189C510.701 391.837 336.692 322.63 200.16 202.362C63.6288 82.0917 -26.9801 -81.7952 -56.2299 -261.378C-85.4703 -440.961 -51.5399 -625.127 39.7801 -782.497C131.096 -939.875 274.161 -1060.72 444.593 -1124.43L442.313 -1130.53Z" fill="url(#paint18_linear_1_58862)" fill-opacity="0.8"/>
</g>
<g filter="url(#filter12_f_1_58862)">
<path d="M442.313 -1130.53C270.472 -1066.29 126.224 -944.446 34.1501 -785.768C-57.9303 -627.095 -92.1403 -441.402 -62.65 -260.332C-33.1678 -79.2618 58.1878 85.984 195.85 207.248C333.515 328.511 508.967 398.291 692.312 404.698C875.656 411.104 1055.55 353.739 1201.34 242.378C1347.13 131.017 1449.8 -27.4494 1491.85 -206.021C1533.9 -384.594 1512.73 -572.222 1431.96 -736.938C1351.18 -901.65 1215.78 -1033.26 1048.85 -1109.34L1046.15 -1103.42C1211.71 -1027.96 1345.99 -897.432 1426.11 -734.07C1506.22 -570.708 1527.22 -384.62 1485.51 -207.515C1443.8 -30.4102 1341.98 126.755 1197.39 237.201C1052.79 347.648 874.378 404.541 692.539 398.189C510.701 391.837 336.692 322.63 200.16 202.362C63.6288 82.0917 -26.9801 -81.7952 -56.2299 -261.378C-85.4703 -440.961 -51.5399 -625.127 39.7801 -782.497C131.096 -939.875 274.161 -1060.72 444.593 -1124.43L442.313 -1130.53Z" fill="url(#paint19_linear_1_58862)" fill-opacity="0.8"/>
</g>
<path d="M1594.92 17.7363L-154.913 17.7362L-154.913 -363.532L1594.92 -363.532L1594.92 17.7363Z" fill="url(#paint20_linear_1_58862)"/>
<path d="M1594.92 17.7363L-154.913 17.7362L-154.913 -363.532L1594.92 -363.532L1594.92 17.7363Z" fill="url(#paint21_linear_1_58862)"/>
<g filter="url(#filter13_f_1_58862)">
<path d="M720 -1180.16C282.38 -1180.16 -72.3809 -825.402 -72.3809 -387.782C-72.381 49.8384 282.38 404.6 720 404.6C1157.62 404.6 1512.38 49.8385 1512.38 -387.781C1512.38 -825.401 1157.62 -1180.16 720 -1180.16Z" stroke="url(#paint22_radial_1_58862)" stroke-opacity="0.6" stroke-width="1.161"/>
</g>
<g filter="url(#filter14_f_1_58862)">
<path d="M440.297 -1135.92C267.21 -1071.21 121.916 -948.486 29.1701 -788.659C-63.5734 -628.832 -98.0307 -441.792 -68.3306 -259.408C-38.6306 -77.0235 53.3893 89.4206 192.05 211.565C330.712 333.709 507.436 403.996 692.111 410.448C876.786 416.9 1057.98 359.119 1204.83 246.95C1351.68 134.782 1455.1 -24.8344 1497.45 -204.702C1539.81 -384.569 1518.49 -573.559 1437.12 -739.469C1355.76 -905.38 1219.38 -1037.95 1051.24 -1114.58L1043.44 -1097.47C1207.63 -1022.64 1340.79 -893.192 1420.24 -731.189C1499.69 -569.185 1520.51 -384.645 1479.15 -209.012C1437.79 -33.3791 1336.81 122.479 1193.42 232.007C1050.03 341.535 873.095 397.955 692.768 391.655C512.441 385.355 339.878 316.723 204.48 197.455C69.0817 78.1873 -20.7718 -84.3394 -49.77 -262.431C-78.7699 -440.522 -45.1299 -623.159 45.44 -779.219C135.998 -935.285 277.871 -1055.12 446.882 -1118.31L440.297 -1135.92Z" fill="url(#paint23_linear_1_58862)" fill-opacity="0.5"/>
</g>
<g filter="url(#filter15_f_1_58862)">
<path d="M438.41 -1140.97C264.158 -1075.82 117.885 -952.27 24.5101 -791.369C-68.8594 -630.462 -103.55 -442.159 -73.65 -258.543C-43.7491 -74.9277 48.8924 92.6392 188.49 215.607C328.087 338.575 506.003 409.335 691.923 415.831C877.843 422.328 1060.26 364.157 1208.1 251.232C1355.94 138.307 1460.05 -22.3859 1502.7 -203.467C1545.34 -384.547 1523.87 -574.811 1441.96 -741.84C1360.05 -908.87 1222.75 -1042.33 1053.47 -1119.48L1040.56 -1091.15C1203.28 -1016.98 1335.26 -888.689 1414 -728.128C1472.8 -608.231 1499.54 -475.145 1491.6 -341.841C1483.66 -208.537 1441.33 -79.5635 1368.71 32.5103C1296.1 144.584 1195.7 235.935 1077.28 297.659C958.858 359.383 826.468 389.375 693.01 384.711C559.551 380.049 429.577 340.89 315.755 271.051C201.932 201.213 108.144 103.077 43.5321 -13.7914C-21.0802 -130.66 -54.3127 -262.274 -52.9268 -395.807C-51.5409 -529.34 -15.5839 -660.236 51.44 -775.739C141.198 -930.41 281.809 -1049.18 449.315 -1111.8L438.41 -1140.97Z" fill="url(#paint24_linear_1_58862)" fill-opacity="0.5"/>
</g>
</g>
</g>
<defs>
<filter id="filter0_f_1_58862" x="-81.093" y="-1138.66" width="1602.19" height="1551.97" filterUnits="userSpaceOnUse" color-interpolation-filters="sRGB">
<feFlood flood-opacity="0" result="BackgroundImageFix"/>
<feBlend mode="normal" in="SourceGraphic" in2="BackgroundImageFix" result="shape"/>
<feGaussianBlur stdDeviation="4.065" result="effect1_foregroundBlur_1_58862"/>
</filter>
<filter id="filter1_f_1_58862" x="-100.551" y="-1158.12" width="1641.1" height="1590.89" filterUnits="userSpaceOnUse" color-interpolation-filters="sRGB">
<feFlood flood-opacity="0" result="BackgroundImageFix"/>
<feBlend mode="normal" in="SourceGraphic" in2="BackgroundImageFix" result="shape"/>
<feGaussianBlur stdDeviation="13.794" result="effect1_foregroundBlur_1_58862"/>
</filter>
<filter id="filter2_f_1_58862" x="-100.549" y="-1208.33" width="1641.1" height="1641.1" filterUnits="userSpaceOnUse" color-interpolation-filters="sRGB">
<feFlood flood-opacity="0" result="BackgroundImageFix"/>
<feBlend mode="normal" in="SourceGraphic" in2="BackgroundImageFix" result="shape"/>
<feGaussianBlur stdDeviation="13.794" result="effect1_foregroundBlur_1_58862"/>
</filter>
<filter id="filter3_f_1_58862" x="-121.931" y="-1229.71" width="1683.86" height="1683.86" filterUnits="userSpaceOnUse" color-interpolation-filters="sRGB">
<feFlood flood-opacity="0" result="BackgroundImageFix"/>
<feBlend mode="normal" in="SourceGraphic" in2="BackgroundImageFix" result="shape"/>
<feGaussianBlur stdDeviation="24.485" result="effect1_foregroundBlur_1_58862"/>
</filter>
<filter id="filter4_f_1_58862" x="-107.447" y="-1215.23" width="1654.89" height="1654.89" filterUnits="userSpaceOnUse" color-interpolation-filters="sRGB">
<feFlood flood-opacity="0" result="BackgroundImageFix"/>
<feBlend mode="normal" in="SourceGraphic" in2="BackgroundImageFix" result="shape"/>
<feGaussianBlur stdDeviation="17.243" result="effect1_foregroundBlur_1_58862"/>
</filter>
<filter id="filter5_f_1_58862" x="-78.4795" y="-1186.26" width="1596.96" height="1596.96" filterUnits="userSpaceOnUse" color-interpolation-filters="sRGB">
<feFlood flood-opacity="0" result="BackgroundImageFix"/>
<feBlend mode="normal" in="SourceGraphic" in2="BackgroundImageFix" result="shape"/>
<feGaussianBlur stdDeviation="2.759" result="effect1_foregroundBlur_1_58862"/>
</filter>
<filter id="filter6_f_1_58862" x="-93.103" y="-1150.67" width="1626.21" height="1575.99" filterUnits="userSpaceOnUse" color-interpolation-filters="sRGB">
<feFlood flood-opacity="0" result="BackgroundImageFix"/>
<feBlend mode="normal" in="SourceGraphic" in2="BackgroundImageFix" result="shape"/>
<feGaussianBlur stdDeviation="10.07" result="effect1_foregroundBlur_1_58862"/>
</filter>
<filter id="filter7_f_1_58862" x="-79.861" y="-1137.43" width="1599.72" height="1549.51" filterUnits="userSpaceOnUse" color-interpolation-filters="sRGB">
<feFlood flood-opacity="0" result="BackgroundImageFix"/>
<feBlend mode="normal" in="SourceGraphic" in2="BackgroundImageFix" result="shape"/>
<feGaussianBlur stdDeviation="3.449" result="effect1_foregroundBlur_1_58862"/>
</filter>
<filter id="filter8_f_1_58862" x="-131.957" y="-1189.52" width="1703.91" height="1653.7" filterUnits="userSpaceOnUse" color-interpolation-filters="sRGB">
<feFlood flood-opacity="0" result="BackgroundImageFix"/>
<feBlend mode="normal" in="SourceGraphic" in2="BackgroundImageFix" result="shape"/>
<feGaussianBlur stdDeviation="29.497" result="effect1_foregroundBlur_1_58862"/>
</filter>
<filter id="filter9_f_1_58862" x="-79.861" y="-1137.43" width="1599.72" height="1549.51" filterUnits="userSpaceOnUse" color-interpolation-filters="sRGB">
<feFlood flood-opacity="0" result="BackgroundImageFix"/>
<feBlend mode="normal" in="SourceGraphic" in2="BackgroundImageFix" result="shape"/>
<feGaussianBlur stdDeviation="3.449" result="effect1_foregroundBlur_1_58862"/>
</filter>
<filter id="filter10_f_1_58862" x="-79.861" y="-1137.43" width="1599.72" height="1549.51" filterUnits="userSpaceOnUse" color-interpolation-filters="sRGB">
<feFlood flood-opacity="0" result="BackgroundImageFix"/>
<feBlend mode="normal" in="SourceGraphic" in2="BackgroundImageFix" result="shape"/>
<feGaussianBlur stdDeviation="3.449" result="effect1_foregroundBlur_1_58862"/>
</filter>
<filter id="filter11_f_1_58862" x="-140.087" y="-1197.65" width="1720.17" height="1669.96" filterUnits="userSpaceOnUse" color-interpolation-filters="sRGB">
<feFlood flood-opacity="0" result="BackgroundImageFix"/>
<feBlend mode="normal" in="SourceGraphic" in2="BackgroundImageFix" result="shape"/>
<feGaussianBlur stdDeviation="33.562" result="effect1_foregroundBlur_1_58862"/>
</filter>
<filter id="filter12_f_1_58862" x="-109.429" y="-1166.99" width="1658.86" height="1608.64" filterUnits="userSpaceOnUse" color-interpolation-filters="sRGB">
<feFlood flood-opacity="0" result="BackgroundImageFix"/>
<feBlend mode="normal" in="SourceGraphic" in2="BackgroundImageFix" result="shape"/>
<feGaussianBlur stdDeviation="18.233" result="effect1_foregroundBlur_1_58862"/>
</filter>
<filter id="filter13_f_1_58862" x="-78.4794" y="-1186.26" width="1596.96" height="1596.96" filterUnits="userSpaceOnUse" color-interpolation-filters="sRGB">
<feFlood flood-opacity="0" result="BackgroundImageFix"/>
<feBlend mode="normal" in="SourceGraphic" in2="BackgroundImageFix" result="shape"/>
<feGaussianBlur stdDeviation="2.759" result="effect1_foregroundBlur_1_58862"/>
</filter>
<filter id="filter14_f_1_58862" x="-90.3303" y="-1147.53" width="1620.66" height="1570.08" filterUnits="userSpaceOnUse" color-interpolation-filters="sRGB">
<feFlood flood-opacity="0" result="BackgroundImageFix"/>
<feBlend mode="normal" in="SourceGraphic" in2="BackgroundImageFix" result="shape"/>
<feGaussianBlur stdDeviation="5.807" result="effect1_foregroundBlur_1_58862"/>
</filter>
<filter id="filter15_f_1_58862" x="-143.099" y="-1199.96" width="1726.2" height="1675.28" filterUnits="userSpaceOnUse" color-interpolation-filters="sRGB">
<feFlood flood-opacity="0" result="BackgroundImageFix"/>
<feBlend mode="normal" in="SourceGraphic" in2="BackgroundImageFix" result="shape"/>
<feGaussianBlur stdDeviation="29.497" result="effect1_foregroundBlur_1_58862"/>
</filter>
<linearGradient id="paint0_linear_1_58862" x1="720" y1="-214.212" x2="720" y2="405.181" gradientUnits="userSpaceOnUse">
<stop offset="0.768" stop-color="#39D47A" stop-opacity="0"/>
<stop offset="1" stop-color="#009CD0"/>
</linearGradient>
<linearGradient id="paint1_linear_1_58862" x1="720" y1="3420.04" x2="720" y2="-491.151" gradientUnits="userSpaceOnUse">
<stop stop-color="#39D47A"/>
<stop offset="0.829" stop-color="#009CD0" stop-opacity="0"/>
</linearGradient>
<radialGradient id="paint2_radial_1_58862" cx="0" cy="0" r="1" gradientUnits="userSpaceOnUse" gradientTransform="translate(720 736.673) rotate(-90) scale(1917.42 6160.47)">
<stop stop-color="#009CD0"/>
<stop offset="0.276" stop-color="#009CD0" stop-opacity="0"/>
</radialGradient>
<radialGradient id="paint3_radial_1_58862" cx="0" cy="0" r="1" gradientUnits="userSpaceOnUse" gradientTransform="translate(720 405.182) rotate(-90) scale(1585.92 1585.92)">
<stop stop-color="white"/>
<stop offset="0.825" stop-color="white" stop-opacity="0"/>
</radialGradient>
<radialGradient id="paint4_radial_1_58862" cx="0" cy="0" r="1" gradientUnits="userSpaceOnUse" gradientTransform="translate(720 736.673) rotate(-90) scale(1917.42 6160.47)">
<stop stop-color="#009CD0"/>
<stop offset="0.24" stop-color="#009CD0" stop-opacity="0"/>
</radialGradient>
<radialGradient id="paint5_radial_1_58862" cx="0" cy="0" r="1" gradientUnits="userSpaceOnUse" gradientTransform="translate(720 405.181) rotate(-90) scale(1585.92 1585.92)">
<stop stop-color="white"/>
<stop offset="0.484" stop-color="white" stop-opacity="0"/>
</radialGradient>
<radialGradient id="paint6_radial_1_58862" cx="0" cy="0" r="1" gradientUnits="userSpaceOnUse" gradientTransform="translate(720 405.182) rotate(-90) scale(1585.92 1585.92)">
<stop stop-color="#009CD0"/>
<stop offset="0.543" stop-color="#009CD0" stop-opacity="0"/>
</radialGradient>
<radialGradient id="paint7_radial_1_58862" cx="0" cy="0" r="1" gradientUnits="userSpaceOnUse" gradientTransform="translate(720 405.181) rotate(-90) scale(1585.92 1585.92)">
<stop stop-color="#9AFFC4"/>
<stop offset="0.543" stop-color="#9AFFC4" stop-opacity="0"/>
</radialGradient>
<radialGradient id="paint8_radial_1_58862" cx="0" cy="0" r="1" gradientUnits="userSpaceOnUse" gradientTransform="translate(720 405.182) rotate(-90) scale(1585.92 1585.92)">
<stop stop-color="#009CD0"/>
<stop offset="0.484" stop-color="#009CD0" stop-opacity="0"/>
</radialGradient>
<radialGradient id="paint9_radial_1_58862" cx="0" cy="0" r="1" gradientUnits="userSpaceOnUse" gradientTransform="translate(720 405.181) rotate(-90) scale(1585.92 1585.92)">
<stop stop-color="#9AFFC4"/>
<stop offset="0.161" stop-color="#9AFFC4" stop-opacity="0"/>
</radialGradient>
<radialGradient id="paint10_radial_1_58862" cx="0" cy="0" r="1" gradientUnits="userSpaceOnUse" gradientTransform="translate(720 405.182) rotate(-90) scale(1585.92 1585.92)">
<stop stop-color="#9AFFC4"/>
<stop offset="0.353" stop-opacity="0"/>
</radialGradient>
<radialGradient id="paint11_radial_1_58862" cx="0" cy="0" r="1" gradientUnits="userSpaceOnUse" gradientTransform="translate(720 405.182) rotate(-90) scale(1585.92 1585.92)">
<stop stop-color="#9AFFC4"/>
<stop offset="0.161" stop-opacity="0"/>
</radialGradient>
<radialGradient id="paint12_radial_1_58862" cx="0" cy="0" r="1" gradientUnits="userSpaceOnUse" gradientTransform="translate(720 405.182) rotate(-90) scale(1585.92 1585.92)">
<stop stop-color="#39D47A"/>
<stop offset="0.28" stop-opacity="0"/>
</radialGradient>
<radialGradient id="paint13_radial_1_58862" cx="0" cy="0" r="1" gradientUnits="userSpaceOnUse" gradientTransform="translate(720 736.673) rotate(-90) scale(1917.42 6160.47)">
<stop stop-color="white"/>
<stop offset="0.276" stop-color="white" stop-opacity="0"/>
</radialGradient>
<linearGradient id="paint14_linear_1_58862" x1="720" y1="922.919" x2="720" y2="-491.151" gradientUnits="userSpaceOnUse">
<stop stop-color="#39D47A"/>
<stop offset="0.403" stop-color="#009CD0" stop-opacity="0"/>
</linearGradient>
<linearGradient id="paint15_linear_1_58862" x1="720" y1="611.783" x2="720" y2="-491.151" gradientUnits="userSpaceOnUse">
<stop offset="0.095" stop-color="#39D47A"/>
<stop offset="0.309" stop-color="#009CD0" stop-opacity="0"/>
</linearGradient>
<radialGradient id="paint16_radial_1_58862" cx="0" cy="0" r="1" gradientUnits="userSpaceOnUse" gradientTransform="translate(719.996 -206.262) rotate(91.785) scale(611.74 1045.65)">
<stop offset="0.729" stop-color="white" stop-opacity="0"/>
<stop offset="1" stop-color="white" stop-opacity="0.02"/>
</radialGradient>
<radialGradient id="paint17_radial_1_58862" cx="0" cy="0" r="1" gradientUnits="userSpaceOnUse" gradientTransform="translate(719.995 -522.256) rotate(91.177) scale(927.632 927.632)">
<stop offset="0.893" stop-color="white" stop-opacity="0"/>
<stop offset="1" stop-color="white" stop-opacity="0.02"/>
</radialGradient>
<linearGradient id="paint18_linear_1_58862" x1="720" y1="-214.212" x2="720" y2="405.181" gradientUnits="userSpaceOnUse">
<stop offset="0.768" stop-color="#39D47A" stop-opacity="0"/>
<stop offset="1" stop-color="#009CD0"/>
</linearGradient>
<linearGradient id="paint19_linear_1_58862" x1="720" y1="-214.212" x2="720" y2="405.181" gradientUnits="userSpaceOnUse">
<stop offset="0.768" stop-color="#39D47A" stop-opacity="0"/>
<stop offset="1" stop-color="#009CD0"/>
</linearGradient>
<linearGradient id="paint20_linear_1_58862" x1="720" y1="17.7363" x2="720" y2="-363.532" gradientUnits="userSpaceOnUse">
<stop stop-color="white" stop-opacity="0"/>
<stop offset="1" stop-color="white"/>
</linearGradient>
<linearGradient id="paint21_linear_1_58862" x1="720" y1="17.7363" x2="720" y2="-363.532" gradientUnits="userSpaceOnUse">
<stop stop-color="white" stop-opacity="0"/>
<stop offset="1" stop-color="white"/>
</linearGradient>
<radialGradient id="paint22_radial_1_58862" cx="0" cy="0" r="1" gradientUnits="userSpaceOnUse" gradientTransform="translate(720 405.181) rotate(-90) scale(1585.92)">
<stop stop-color="#9AFFC4"/>
<stop offset="0.28" stop-opacity="0"/>
</radialGradient>
<linearGradient id="paint23_linear_1_58862" x1="720" y1="619.037" x2="720" y2="-491.902" gradientUnits="userSpaceOnUse">
<stop offset="0.095" stop-color="white"/>
<stop offset="0.25" stop-color="white" stop-opacity="0"/>
</linearGradient>
<linearGradient id="paint24_linear_1_58862" x1="720" y1="625.827" x2="720" y2="-492.604" gradientUnits="userSpaceOnUse">
<stop offset="0.095" stop-color="#39D47A"/>
<stop offset="0.309" stop-color="#009CD0" stop-opacity="0"/>
</linearGradient>
<clipPath id="clip0_1_58862">
<rect width="1440" height="818" fill="white" transform="translate(1440 454) rotate(-180)"/>
</clipPath>
</defs>
</svg>
