<svg width="47" height="40" viewBox="0 0 47 40" fill="none" xmlns="http://www.w3.org/2000/svg">
<g clip-path="url(#clip0_3878_40367)">
<path d="M25.3476 32.9657C25.2934 32.7371 25.3843 32.7312 25.5044 32.6111C25.6949 32.4206 27.355 31.0756 27.4795 31.058C30.1418 31.9371 35.9982 33.5855 36.3352 29.2279C36.6517 25.1312 31.3198 18.4016 28.2795 15.8946C27.3564 15.1342 27.1542 14.9012 25.9366 15.3144C23.3535 16.1906 17.9586 20.5759 22.4026 22.7239C22.637 23.0668 21.5088 23.7715 21.1997 23.9093C18.8773 24.9393 17.9938 21.4389 18.1843 19.7217C18.5725 16.2272 25.3623 11.1181 28.7953 13.0345C31.396 14.4866 36.0202 20.5129 37.3447 23.2397C42.1271 33.0946 35.2949 36.8485 26.3733 33.332C26.0334 33.1986 25.8033 32.8602 25.3476 32.9657Z" fill="url(#paint0_linear_3878_40367)"/>
<path d="M21.0979 7.47378L18.9499 9.34045C17.7352 8.98001 16.5631 8.52579 15.2927 8.37048C13.366 8.13312 10.5367 8.30162 10.2554 10.769C9.76305 15.1075 14.6246 21.2188 17.7264 23.9588C18.6217 24.75 19.0803 25.4078 20.3755 25.1368C21.8773 24.8218 25.5521 21.9705 25.7748 20.4276C25.9696 19.0782 25.4656 17.9939 24.1235 17.5793C23.9374 17.5602 24.0121 17.3961 24.1015 17.2877C24.2026 17.1661 25.3352 16.3778 25.4891 16.3309C27.6883 15.6701 28.5821 18.7529 28.4092 20.4247C28.0283 24.117 20.9044 29.5851 17.448 27.1632C16.4107 26.4364 14.418 24.3895 13.533 23.3932C10.5543 20.0393 6.20115 13.5544 8.13521 8.94045C10.2275 3.94997 17.2927 5.79173 21.0993 7.47524L21.0979 7.47378Z" fill="url(#paint1_linear_3878_40367)"/>
<path d="M10.255 21.9778C10.3005 22.0423 10.5232 22.1258 10.6243 22.262C11.1239 22.9404 11.6968 23.5573 12.1657 24.2576C11.8345 25.6877 11.1444 27.0371 11.0067 28.5155C10.2521 36.5668 18.9935 32.1785 22.4631 29.7155C25.7789 27.3639 28.5159 24.1478 30.9891 20.9536C33.1005 23.128 31.3642 24.8027 29.8184 26.5214C26.1583 30.5917 18.4338 36.8569 12.6228 35.5075C8.17006 34.473 7.98691 29.9456 8.79131 26.2254C8.8719 25.8503 9.11219 25.0445 9.23087 24.6137C9.34955 24.1829 9.52684 23.5895 9.67043 23.1485C9.77739 22.8217 10.0338 22.2518 10.2565 21.9763L10.255 21.9778Z" fill="url(#paint2_linear_3878_40367)"/>
<path d="M37.3608 14.2123C37.2744 14.5434 37.0282 15.3727 36.9213 15.6775C36.8685 15.8255 36.5843 16.4643 36.4817 16.7031C36.3498 17.0123 35.9733 17.6584 35.7491 17.8753C35.3813 17.3947 34.1901 16.2826 34.1374 15.7361C34.7938 13.572 36.3645 9.20716 34.1271 7.55441C31.5586 5.65697 26.3909 8.56247 24.1271 10.1361C20.6839 12.5302 17.7081 15.7713 15.3096 19.191C12.9286 16.9918 15.1528 14.9405 16.7733 13.1837C19.9132 9.78005 25.4048 5.46064 30.0275 4.60642C36.8187 3.35221 38.8905 8.35734 37.3608 14.2108V14.2123Z" fill="url(#paint3_linear_3878_40367)"/>
<path d="M8.79033 26.2273C6.56176 22.6464 4.16029 18.5687 3.03795 14.4705C2.16908 11.2998 1.6841 5.27347 6.29948 5.12988L4.76249 6.88666C3.63721 9.66468 4.21157 12.7563 5.05553 15.5299C6.02989 18.7328 7.70461 21.6618 9.22989 24.6156C9.11121 25.0464 8.87091 25.8522 8.79033 26.2273Z" fill="url(#paint4_linear_3878_40367)" fill-opacity="0.2"/>
<path d="M9.66904 23.1501C9.35695 23.2175 9.34963 22.9831 9.22948 22.7911C7.06978 19.2966 3.06098 10.7311 5.19139 6.87904C6.15842 5.12959 8.8163 4.42482 10.5467 5.34937C4.27271 6.6153 6.576 14.0248 8.32399 18.1215C8.80164 19.2424 9.57674 21.0094 10.2537 21.9794C10.0309 22.2549 9.77454 22.8248 9.66758 23.1516L9.66904 23.1501Z" fill="url(#paint5_linear_3878_40367)" fill-opacity="0.5"/>
<path d="M37.3614 14.2124C40.7841 18.8322 45.4391 24.5802 44.8325 30.6945C44.664 32.3985 43.568 33.9238 41.757 33.9912C44.2274 31.6805 43.1959 27.4109 42.1204 24.6183C40.8765 21.3846 38.8091 18.545 36.9219 15.6776C37.0288 15.3728 37.275 14.5435 37.3614 14.2124Z" fill="url(#paint6_linear_3878_40367)" fill-opacity="0.2"/>
<path d="M36.4821 16.7031C38.5495 19.4313 40.6521 22.5288 41.8667 25.7507C42.7546 28.1068 43.7393 32.1478 41.2206 33.8211C40.9363 34.0101 39.6045 34.5786 39.3407 34.5786H37.2162C37.1429 34.1405 37.3319 34.3471 37.5605 34.2694C44.7898 31.8299 38.6418 21.6599 35.751 17.8753C35.9752 17.6584 36.3517 17.0123 36.4836 16.7031H36.4821Z" fill="url(#paint7_linear_3878_40367)" fill-opacity="0.5"/>
<path d="M5.27326 25.6426C4.14652 26.7693 3.59267 27.962 3.80659 29.5971C2.87766 28.3195 1.60586 27.6807 0 27.8389L1.32747 25.8711C1.57216 25.1297 1.63223 24.4997 1.46667 23.7378C2.41612 25.0242 3.64249 25.6968 5.27473 25.644L5.27326 25.6426Z" fill="url(#paint8_linear_3878_40367)"/>
<path d="M46.2991 10.9906C45.083 12.1188 44.642 13.2676 44.8325 14.9452C43.886 13.6939 42.6581 12.9569 41.0244 13.187C41.2867 12.5027 41.8889 12.2346 42.1995 11.5064C42.5101 10.7782 42.535 10.1481 42.4896 9.37891C43.1827 9.64411 43.5197 10.3166 44.2464 10.6243C44.8588 10.8822 45.6339 10.9877 46.2977 10.9921L46.2991 10.9906Z" fill="url(#paint9_linear_3878_40367)"/>
<path d="M26.2258 36.6317C25.0903 37.4874 24.5774 38.5511 24.7591 40.0002C23.9034 38.8647 22.8397 38.3519 21.3906 38.5335C22.5262 37.6779 23.039 36.6141 22.8573 35.165C23.713 36.3006 24.7767 36.8134 26.2258 36.6317Z" fill="url(#paint10_linear_3878_40367)"/>
<path d="M21.8303 1.46667C20.7651 2.28278 20.1834 3.29817 20.3651 4.68718L18.7958 3.54725L16.9951 3.3685C18.1306 2.51282 18.6435 1.44908 18.4618 0C19.3175 1.13553 20.3812 1.64835 21.8303 1.46667Z" fill="url(#paint11_linear_3878_40367)"/>
</g>
<defs>
<linearGradient id="paint0_linear_3878_40367" x1="38.9175" y1="34.6246" x2="16.9475" y2="13.9017" gradientUnits="userSpaceOnUse">
<stop stop-color="#39D47A"/>
<stop offset="1" stop-color="#009CD0"/>
</linearGradient>
<linearGradient id="paint1_linear_3878_40367" x1="28.4301" y1="27.7618" x2="6.41106" y2="7.02533" gradientUnits="userSpaceOnUse">
<stop stop-color="#39D47A"/>
<stop offset="1" stop-color="#009CD0"/>
</linearGradient>
<linearGradient id="paint2_linear_3878_40367" x1="31.9675" y1="35.6943" x2="18.7082" y2="14.5132" gradientUnits="userSpaceOnUse">
<stop stop-color="#39D47A"/>
<stop offset="1" stop-color="#009CD0"/>
</linearGradient>
<linearGradient id="paint3_linear_3878_40367" x1="37.8379" y1="19.191" x2="24.5348" y2="-2.02558" gradientUnits="userSpaceOnUse">
<stop stop-color="#39D47A"/>
<stop offset="1" stop-color="#009CD0"/>
</linearGradient>
<linearGradient id="paint4_linear_3878_40367" x1="9.22989" y1="26.2273" x2="-3.03296" y2="22.2974" gradientUnits="userSpaceOnUse">
<stop stop-color="#39D47A"/>
<stop offset="1" stop-color="#009CD0"/>
</linearGradient>
<linearGradient id="paint5_linear_3878_40367" x1="10.5467" y1="23.1619" x2="-0.222282" y2="19.6389" gradientUnits="userSpaceOnUse">
<stop stop-color="#39D47A"/>
<stop offset="1" stop-color="#009CD0"/>
</linearGradient>
<linearGradient id="paint6_linear_3878_40367" x1="44.8863" y1="33.9912" x2="31.1799" y2="28.472" gradientUnits="userSpaceOnUse">
<stop stop-color="#39D47A"/>
<stop offset="1" stop-color="#009CD0"/>
</linearGradient>
<linearGradient id="paint7_linear_3878_40367" x1="42.8242" y1="34.5786" x2="30.5929" y2="29.7387" gradientUnits="userSpaceOnUse">
<stop stop-color="#39D47A"/>
<stop offset="1" stop-color="#009CD0"/>
</linearGradient>
<linearGradient id="paint8_linear_3878_40367" x1="5.27473" y1="29.5971" x2="-0.552397" y2="24.3514" gradientUnits="userSpaceOnUse">
<stop stop-color="#39D47A"/>
<stop offset="1" stop-color="#009CD0"/>
</linearGradient>
<linearGradient id="paint9_linear_3878_40367" x1="46.2991" y1="14.9452" x2="40.7409" y2="9.67811" gradientUnits="userSpaceOnUse">
<stop stop-color="#39D47A"/>
<stop offset="1" stop-color="#009CD0"/>
</linearGradient>
<linearGradient id="paint10_linear_3878_40367" x1="26.2258" y1="40.0002" x2="21.3906" y2="35.165" gradientUnits="userSpaceOnUse">
<stop stop-color="#39D47A"/>
<stop offset="1" stop-color="#009CD0"/>
</linearGradient>
<linearGradient id="paint11_linear_3878_40367" x1="21.8303" y1="4.68718" x2="17.1454" y2="-0.145651" gradientUnits="userSpaceOnUse">
<stop stop-color="#39D47A"/>
<stop offset="1" stop-color="#009CD0"/>
</linearGradient>
<clipPath id="clip0_3878_40367">
<rect width="46.2989" height="40" fill="white"/>
</clipPath>
</defs>
</svg>
