<svg width="16" height="18" viewBox="0 0 16 18" fill="none" xmlns="http://www.w3.org/2000/svg">
<path d="M7.46848 8.59626L0.0664062 16.5044C0.0671015 16.5058 0.0671014 16.5079 0.0677966 16.5093C0.295135 17.368 1.07379 18 1.99844 18C2.3683 18 2.71522 17.8992 3.01277 17.7229L3.03641 17.7089L11.368 12.8695L7.46848 8.59626Z" fill="#EA4335"/>
<path d="M14.9573 7.24818L14.9503 7.24328L11.3533 5.14446L7.30078 8.77453L11.3679 12.8672L14.9455 10.7894C15.5726 10.4478 15.9988 9.78229 15.9988 9.01527C15.9988 8.25245 15.5788 7.5904 14.9573 7.24818Z" fill="#FBBC04"/>
<path d="M0.0681321 1.49445C0.0236377 1.65961 0 1.83317 0 2.01233V15.9867C0 16.1659 0.0236377 16.3394 0.0688274 16.5039L7.72465 8.79797L0.0681321 1.49445Z" fill="#4285F4"/>
<path d="M7.5234 9L11.3541 5.14458L3.03224 0.287698C2.72982 0.10504 2.37664 6.48499e-05 1.99913 6.48499e-05C1.07448 6.48499e-05 0.29444 0.633419 0.0671011 1.49282C0.0671011 1.49352 0.0664062 1.49422 0.0664062 1.49492L7.5234 9Z" fill="#34A853"/>
</svg>
